<?xml version="1.0" encoding="UTF-8"?><svg id="Calque_2" xmlns="http://www.w3.org/2000/svg" viewBox="0 0 188.75 212.09"><defs><style>.cls-1{fill:#363635;}</style></defs><g id="logo"><g id="logo_mono"><path class="cls-1" d="m8.04.25c-.11-.15-.25-.2-.39-.2h-.67c-.14,0-.28.1-.39.25-.11.15-.18.35-.18.55v80.54c0,.2.07.35.18.5.11.15.25.2.39.2h.67c.14,0,.28-.1.39-.25.11-.15.18-.35.18-.55V.75c0-.2-.07-.35-.18-.5Z"/><path class="cls-1" d="m34.44,82.05c-.92,0-1.65-.3-2.17-.9s-.76-1.41-.76-2.36c0-.25.04-.65.16-1.2L49.45,3.61c.6-2.41,1.81-3.61,3.65-3.61h8.95c1.85,0,3.05,1.2,3.61,3.61l17.7,73.87c.12.55.2.95.2,1.2,0,.9-.24,1.65-.72,2.31-.48.65-1.2.95-2.13.95h-4.42c-1,0-1.76-.3-2.29-.9s-.92-1.51-1.2-2.71l-4.14-16.51h-22.15l-4.09,16.56c-.28,1.2-.68,2.11-1.2,2.71s-1.28.9-2.29.9l-4.5.05Zm14.29-31.06h17.66l-4.45-18.27c-1.08-4.37-2.53-11.09-4.34-20.12-1.41,7.08-2.89,13.8-4.45,20.17l-4.42,18.22Z"/><path class="cls-1" d="m95.22,3.26c0-1.05.24-1.86.76-2.41.52-.55,1.21-.85,2.09-.85h19.51c12.4,0,18.58,7.08,18.58,21.28v9.89c0,13.85-6.18,20.77-18.58,20.77h-11.44v26.55c0,1.05-.24,1.91-.76,2.56-.52.65-1.2.95-2.05.95h-5.26c-.88,0-1.56-.3-2.09-.95-.52-.65-.76-1.51-.76-2.56V3.26Zm22.55,37.04c2.57,0,4.45-.7,5.62-2.11,1.16-1.41,1.76-3.61,1.76-6.57v-11.24c0-3.16-.56-5.47-1.73-6.87-1.16-1.41-3.01-2.11-5.58-2.11h-11.72v28.85l11.64.05Z"/><path class="cls-1" d="m147.81,3.26c0-1.05.24-1.86.76-2.41.52-.55,1.2-.85,2.09-.85h19.51c12.4,0,18.58,7.08,18.58,21.28v9.89c0,13.85-6.18,20.77-18.58,20.77h-11.44v26.55c0,1.05-.24,1.91-.76,2.56-.52.65-1.2.95-2.05.95h-5.25c-.88,0-1.56-.3-2.09-.95-.53-.65-.76-1.51-.76-2.56V3.26Zm22.56,37.04c2.57,0,4.45-.7,5.62-2.11,1.16-1.41,1.76-3.61,1.76-6.57v-11.24c0-3.16-.56-5.47-1.73-6.87-1.16-1.41-3.01-2.11-5.58-2.11h-11.72v28.85l11.64.05Z"/><path class="cls-1" d="m6.43,91.34H.54c-.37,0-.54-.2-.54-.6v-.53c0-.41.17-.6.54-.6h13.57c.36,0,.54.2.54.6v.53c0,.41-.18.6-.54.6h-5.89v22.29c0,.41-.18.6-.53.6h-.73c-.35,0-.53-.2-.53-.6v-22.29Z"/><path class="cls-1" d="m18.36,90.21c0-.41.18-.6.54-.6h.73c.35,0,.53.2.53.6v10.64h10.52v-10.64c0-.41.19-.6.55-.6h.7c.36,0,.55.2.55.6v23.43c0,.41-.19.6-.55.6h-.7c-.37,0-.55-.2-.55-.6v-11.04h-10.52v11.04c0,.41-.17.6-.53.6h-.73c-.36,0-.54-.2-.54-.6v-23.43Z"/><path class="cls-1" d="m38.62,90.19c0-.39.18-.59.54-.59h10.79c.37,0,.55.2.55.6v.53c0,.41-.19.6-.55.6h-9.52v9.51h9.52c.37,0,.55.2.55.6v.53c0,.41-.19.62-.55.62h-9.52v9.9h9.52c.37,0,.55.2.55.6v.53c0,.41-.19.6-.55.6h-10.79c-.36,0-.54-.2-.54-.6v-23.44Z"/><path class="cls-1" d="m56.08,90.21c0-.41.18-.6.54-.6h6.76c3.91,0,5.88,1.96,5.88,5.88v1.27c0,1.4-.27,2.55-.83,3.44-.55.89-1.37,1.49-2.44,1.81,2.18.57,3.28,2.34,3.28,5.31v6.33c0,.41-.19.6-.56.6h-.7c-.36,0-.54-.2-.54-.6v-6.42c0-1.46-.34-2.55-1-3.26s-1.71-1.07-3.13-1.07h-5.45v10.75c0,.41-.17.6-.54.6h-.72c-.36,0-.54-.2-.54-.6v-23.43Zm7.25,10.96c1.42,0,2.46-.36,3.13-1.07.66-.71,1-1.79,1-3.25v-1.34c0-1.43-.33-2.49-.97-3.16-.65-.68-1.68-1.01-3.1-1.01h-5.5v9.83l5.45.02Z"/><path class="cls-1" d="m74.73,90.19c0-.39.18-.59.54-.59h10.79c.37,0,.56.2.56.6v.53c0,.41-.19.6-.56.6h-9.52v9.51h9.52c.37,0,.56.2.56.6v.53c0,.41-.19.62-.56.62h-9.52v9.9h9.52c.37,0,.56.2.56.6v.53c0,.41-.19.6-.56.6h-10.79c-.36,0-.54-.2-.54-.6v-23.44Z"/><path class="cls-1" d="m92.2,90.19c0-.39.18-.59.54-.59h10.81c.37,0,.54.2.54.6v.53c0,.41-.18.6-.54.6h-9.53v10.02h9.53c.37,0,.54.2.54.6v.53c0,.41-.18.62-.54.62h-9.53v10.52c0,.41-.19.6-.55.6h-.72c-.36,0-.54-.2-.54-.6v-23.44Z"/><path class="cls-1" d="m108.31,95.63c0-2.04.51-3.59,1.53-4.66s2.51-1.61,4.47-1.61h2.65c1.96,0,3.45.53,4.47,1.6,1.02,1.07,1.53,2.62,1.53,4.66v12.63c0,2.04-.51,3.59-1.53,4.66-1.02,1.07-2.51,1.6-4.47,1.6h-2.65c-1.96,0-3.45-.54-4.47-1.61s-1.53-2.62-1.53-4.66v-12.6Zm8.67,17.09c2.8,0,4.21-1.49,4.21-4.49v-12.63c0-2.98-1.41-4.48-4.21-4.48h-2.65c-2.8,0-4.2,1.49-4.2,4.48v12.63c0,3,1.39,4.49,4.2,4.49h2.65Z"/><path class="cls-1" d="m128.73,90.21c0-.41.18-.6.54-.6h6.76c3.91,0,5.88,1.96,5.88,5.88v1.27c0,1.4-.27,2.55-.83,3.44-.56.89-1.37,1.49-2.44,1.81,2.18.57,3.28,2.34,3.28,5.31v6.33c0,.41-.19.6-.56.6h-.7c-.36,0-.54-.2-.54-.6v-6.42c0-1.46-.34-2.55-1-3.26s-1.71-1.07-3.13-1.07h-5.45v10.75c0,.41-.17.6-.54.6h-.72c-.36,0-.54-.2-.54-.6v-23.43Zm7.24,10.96c1.42,0,2.47-.36,3.13-1.07s1-1.79,1-3.25v-1.34c0-1.43-.33-2.49-.97-3.16-.65-.68-1.68-1.01-3.1-1.01h-5.5v9.83l5.44.02Z"/><path class="cls-1" d="m147.37,90.19c0-.39.18-.59.54-.59h10.79c.37,0,.56.2.56.6v.53c0,.41-.19.6-.56.6h-9.52v9.51h9.52c.37,0,.56.2.56.6v.53c0,.41-.19.62-.56.62h-9.52v9.9h9.52c.37,0,.56.2.56.6v.53c0,.41-.19.6-.56.6h-10.79c-.36,0-.54-.2-.54-.6v-23.44Z"/><path class="cls-1" d="m8.04,122.05c-.11-.17-.25-.22-.39-.22h-.67c-.14,0-.28.11-.39.28-.11.17-.18.39-.18.61v88.61c0,.22.07.39.18.55.11.17.25.22.39.22h.67c.14,0,.28-.11.39-.28.11-.17.18-.39.18-.61v-88.61c0-.22-.07-.39-.18-.55Z"/><path class="cls-1" d="m32.45,212.03c-1.02,0-1.81-.33-2.39-.99s-.84-1.55-.84-2.59c0-.28.04-.72.18-1.33l19.57-81.38c.66-2.65,1.99-3.97,4.02-3.97h9.85c2.03,0,3.36,1.32,3.98,3.97l19.48,81.27c.13.61.22,1.05.22,1.33,0,.99-.26,1.82-.8,2.54-.53.72-1.33,1.05-2.34,1.05h-4.86c-1.11,0-1.95-.33-2.52-.99s-1.02-1.66-1.33-2.98l-4.55-18.16h-24.39l-4.51,18.22c-.31,1.33-.75,2.32-1.33,2.98s-1.41.99-2.52.99l-4.95.05Zm15.73-34.17h19.44l-4.9-20.09c-1.19-4.8-2.78-12.2-4.77-22.14-1.55,7.78-3.18,15.18-4.9,22.19l-4.86,20.04Z"/><path class="cls-1" d="m98.74,212.09c-2.21,0-3.31-1.44-3.31-4.25v-81.43c0-3.04,1.15-4.53,3.49-4.53h6.8c1.19,0,2.12.33,2.78.94.66.61,1.24,1.6,1.72,2.98l10.6,28.16,6.54,17.83,6.58-17.83,10.56-28.16c.49-1.33,1.06-2.32,1.68-2.98.62-.66,1.55-.99,2.74-.99h6.85c2.34,0,3.49,1.49,3.49,4.53v81.43c0,2.82-1.11,4.25-3.36,4.25h-4.46c-2.25,0-3.36-1.44-3.36-4.25v-41.13c0-7.73.09-14.58.26-20.48-3.36,10.21-6.05,17.72-8.13,22.52l-7.42,17.45c-1.28,2.98-3.09,4.47-5.44,4.47s-4.15-1.49-5.43-4.47l-7.47-17.45c-.58-1.32-1.15-2.7-1.73-4.19-.57-1.49-1.19-3.15-1.81-4.91-.62-1.77-1.1-3.2-1.5-4.31-.4-1.11-.93-2.76-1.63-4.91-.71-2.15-1.19-3.59-1.41-4.25.22,5.74.31,12.59.31,20.48v41.13c0,2.82-1.1,4.25-3.36,4.25l-4.59.11Z"/><path class="cls-1" d="m188.64,204.13c0-2.25-1.44-3.36-4.25-3.36h-12.07c-2.82,0-4.25,1.1-4.25,3.31l.11,4.59c0,2.25,1.44,3.36,4.25,3.36h12.07c2.82,0,4.25-1.1,4.25-3.31l-.11-4.59Z"/></g></g></svg>