<svg width="91" height="30" viewBox="0 0 91 30" fill="none" xmlns="http://www.w3.org/2000/svg">
<path d="M13.1382 10.9333C13.9973 13.5601 17.6499 15.8732 19.7858 13.8738C20.9809 12.7594 21.4321 4.20472 21.5281 1.77925C21.5905 0.117003 23.5488 -0.561942 24.9695 0.529052C26.4767 1.6856 26.8174 4.36392 27.9742 6.32584C29.1309 8.28775 34.5834 12.6705 34.1562 17.3341C33.7291 21.9978 29.4573 28.0755 27.211 26.4882C26.0591 25.6734 25.9295 24.0908 26.1119 22.7423C26.539 19.577 26.9902 14.9742 24.4368 12.4363C24.336 12.338 24.216 12.235 24.072 12.2444C23.928 12.2537 23.8176 12.3661 23.7312 12.4738C22.0273 14.5575 21.8449 17.3575 21.3073 19.9328C20.6258 23.1824 18.3651 19.3522 17.7939 18.3783C16.978 16.9829 15.3556 16.1541 13.7429 15.6719C10.7527 14.7822 10.3303 15.4752 10.2343 16.0839C9.98953 17.6666 13.2246 19.8298 14.2853 21.9978C15.2644 23.9878 15.9892 26.5865 13.2822 28.6421C12.7686 29.0307 12.159 29.3023 11.5158 29.4146C7.73845 30.0749 2.03155 28.1504 1.0476 27.3076C-0.752299 25.7671 2.32434 23.6319 5.07939 25.1396C6.07774 25.6828 7.79125 27.8695 9.57195 26.1885C13.4021 22.5831 7.34967 17.5635 6.06334 15.8732C5.30498 14.8805 3.11629 10.9801 5.02179 9.27105C6.92729 7.56198 8.93838 8.12387 8.84239 8.57806C7.69045 14.0611 12.2886 8.28775 13.1526 10.938L13.1382 10.9333Z" fill="#FAE384"/>
<path d="M36.6517 8.41426V1.29236H41.6147V8.138C41.6147 10.231 43.0066 11.2565 45.3393 11.2565C47.6719 11.2565 49.0447 10.231 49.0447 8.138V1.29236H54.0076V8.40957C54.0076 12.4832 50.8302 14.7401 45.3393 14.7401C39.8484 14.7401 36.6517 12.4832 36.6517 8.40957V8.41426Z" fill="white"/>
<path d="M60.1656 14.4311V4.68708H54.9387V1.29236H70.3603V4.68708H65.1334V14.4311H60.1704H60.1656Z" fill="white"/>
<path d="M70.7155 7.86175C70.7155 3.62419 74.6656 0.833496 80.6077 0.833496C86.5498 0.833496 90.5 3.62419 90.5 7.86175C90.5 12.0993 86.5498 14.89 80.6077 14.89C74.6656 14.89 70.7155 12.0806 70.7155 7.86175ZM85.5179 7.86175C85.5179 5.67976 83.5596 4.22822 80.6077 4.22822C77.6559 4.22822 75.6784 5.67508 75.6784 7.86175C75.6784 10.0484 77.6511 11.4953 80.6077 11.4953C83.5644 11.4953 85.5179 10.0437 85.5179 7.86175Z" fill="white"/>
<path d="M36.6517 23.5243V16.4071H41.6147V23.2527C41.6147 25.3458 43.0066 26.3712 45.3393 26.3712C47.6719 26.3712 49.0447 25.3458 49.0447 23.2527V16.4071H54.0076V23.5243C54.0076 27.598 50.8302 29.8549 45.3393 29.8549C39.8484 29.8549 36.6517 27.598 36.6517 23.5243Z" fill="white"/>
<path d="M60.1656 29.5412V19.7972H54.9387V16.4025H70.3603V19.7972H65.1334V29.5412H60.1704H60.1656Z" fill="white"/>
<path d="M70.7155 22.9717C70.7155 18.7342 74.6656 15.9435 80.6077 15.9435C86.5498 15.9435 90.5 18.7342 90.5 22.9717C90.5 27.2093 86.5498 30 80.6077 30C74.6656 30 70.7155 27.1906 70.7155 22.9717ZM85.5179 22.9717C85.5179 20.7897 83.5596 19.3382 80.6077 19.3382C77.6559 19.3382 75.6784 20.7851 75.6784 22.9717C75.6784 25.1584 77.6511 26.6053 80.6077 26.6053C83.5644 26.6053 85.5179 25.1537 85.5179 22.9717Z" fill="white"/>
</svg>
