<?xml version="1.0" encoding="UTF-8" standalone="no"?>
<!-- Created with Inkscape (http://www.inkscape.org/) -->
<svg
   xmlns:svg="http://www.w3.org/2000/svg"
   xmlns="http://www.w3.org/2000/svg"
   version="1.0"
   width="409.7196"
   height="273.11627"
   id="svg2">
  <defs
     id="defs4">
    <clipPath
       id="clipPath2828">
      <path
         d="M 885.825,841.86 L 891.072,841.86 L 891.072,838.641 L 885.825,838.641 L 885.825,841.86 z"
         id="path2830" />
    </clipPath>
    <clipPath
       id="clipPath2816">
      <path
         d="M 0.030029,841.86 L 1481.1,841.86 L 1481.1,0 L 0.030029,0 L 0.030029,841.86 z"
         id="path2818" />
    </clipPath>
    <clipPath
       id="clipPath2810">
      <path
         d="M 885.825,838.641 L 882.801,838.641 L 882.801,867.441 L 891.072,867.441 L 891.072,850.395 L 885.825,850.395 L 885.825,838.641"
         id="path2812" />
    </clipPath>
    <clipPath
       id="clipPath2798">
      <path
         d="M 0.030029,841.86 L 1481.1,841.86 L 1481.1,0 L 0.030029,0 L 0.030029,841.86 z"
         id="path2800" />
    </clipPath>
    <clipPath
       id="clipPath2792">
      <path
         d="M 898.164,838.641 L 885.825,838.641 L 891.072,838.641 L 891.072,850.395 L 898.164,850.395 L 898.164,838.641"
         id="path2794" />
    </clipPath>
    <clipPath
       id="clipPath2780">
      <path
         d="M 0.030029,841.86 L 1481.1,841.86 L 1481.1,0 L 0.030029,0 L 0.030029,841.86 z"
         id="path2782" />
    </clipPath>
    <clipPath
       id="clipPath2774">
      <path
         d="M 882.801,838.641 L 875.718,838.641 L 875.718,867.441 L 891.072,867.441 L 882.801,867.441 L 882.801,838.641"
         id="path2776" />
    </clipPath>
    <clipPath
       id="clipPath2762">
      <path
         d="M 280.44,841.86 L 283.464,841.86 L 283.464,838.641 L 280.44,838.641 L 280.44,841.86 z"
         id="path2764" />
    </clipPath>
    <clipPath
       id="clipPath2750">
      <path
         d="M 0.030029,841.86 L 1481.1,841.86 L 1481.1,0 L 0.030029,0 L 0.030029,841.86 z"
         id="path2752" />
    </clipPath>
    <clipPath
       id="clipPath2744">
      <path
         d="M 295.803,838.641 L 283.464,838.641 L 283.464,843.015 L 280.44,843.015 L 280.44,867.441 L 295.803,867.441 L 295.803,838.641"
         id="path2746" />
    </clipPath>
    <clipPath
       id="clipPath2732">
      <path
         d="M 0.030029,841.86 L 283.46403,841.86 L 283.46403,0 L 0.030029,0 L 0.030029,841.86 z"
         id="path2734" />
    </clipPath>
    <clipPath
       id="clipPath2726">
      <path
         d="M 283.464,-0.95993 L -1.044,-0.95993 L -1.044,843.015 L 280.44,843.015 L 280.44,838.641 L 283.464,838.641 L 283.464,-0.95993"
         id="path2728" />
    </clipPath>
    <clipPath
       id="clipPath2494">
      <path
         d="M 0.030029,841.86 L 1481.1,841.86 L 1481.1,0 L 0.030029,0 L 0.030029,841.86 z"
         id="path2496" />
    </clipPath>
    <clipPath
       id="clipPath2478">
      <path
         d="M 914.175,841.86 L 1481.1,841.86 L 1481.1,0 L 914.175,0 L 914.175,841.86 z"
         id="path2480" />
    </clipPath>
  </defs>
  <g
     transform="translate(-68.513418,-82.454448)"
     id="layer1">
    <g
       transform="matrix(1.25,0,0,-1.25,-1319.992,1275.6675)"
       id="g2474">
      <g
         clip-path="url(#clipPath2478)"
         id="g2476">
        <g
           transform="matrix(570.07208,0,0,843.91205,912.92407,-0.906067)"
           id="g2482" />
      </g>
    </g>
    <g
       transform="matrix(1.25,0,0,-1.25,-1319.992,1275.6675)"
       id="g2490">
      <g
         clip-path="url(#clipPath2494)"
         id="g2492" />
    </g>
    <g
       transform="matrix(3.4520872,0,0,3.4520872,-1172.669,-871.89044)"
       id="g3177">
      <path
         d="M 443.558,279.57 L 443.558,279.56875 L 443.408,279.63375 L 443.558,279.57"
         id="path2500"
         style="fill:#7b7979;fill-opacity:1;fill-rule:nonzero;stroke:none" />
      <path
         d="M 401.383,285.87 L 401.458,285.855 L 401.383,285.87"
         id="path2502"
         style="fill:#7b7979;fill-opacity:1;fill-rule:nonzero;stroke:none" />
      <path
         d="M 450.183,277.78875 L 450.308,277.74875 L 450.183,277.78875"
         id="path2504"
         style="fill:#7b7979;fill-opacity:1;fill-rule:nonzero;stroke:none" />
      <path
         d="M 450.183,277.78875 L 450.1455,277.8 L 450.1705,277.82125 L 450.183,277.78875"
         id="path2506"
         style="fill:#7b7979;fill-opacity:1;fill-rule:nonzero;stroke:none" />
      <path
         d="M 448.6455,278.2825 L 448.708,278.285 L 448.6455,278.2825"
         id="path2508"
         style="fill:#7b7979;fill-opacity:1;fill-rule:nonzero;stroke:none" />
      <path
         d="M 443.208,279.75 L 443.408,279.63375 C 443.3205,279.63375 443.233,279.61625 443.208,279.75"
         id="path2510"
         style="fill:#7b7979;fill-opacity:1;fill-rule:nonzero;stroke:none" />
      <path
         d="M 425.5205,285.02 C 425.633,284.9825 425.758,284.91125 425.858,284.89125 C 425.6955,284.83125 425.5955,284.9625 425.5205,285.02"
         id="path2512"
         style="fill:#7b7979;fill-opacity:1;fill-rule:nonzero;stroke:none" />
      <path
         d="M 426.608,284.39125 L 426.533,284.34875 L 426.533,284.35625 L 426.608,284.39125"
         id="path2514"
         style="fill:#7b7979;fill-opacity:1;fill-rule:nonzero;stroke:none" />
      <path
         d="M 425.5205,285.02 L 425.433,285.04 L 425.5205,285.02"
         id="path2516"
         style="fill:#7b7979;fill-opacity:1;fill-rule:nonzero;stroke:none" />
      <path
         d="M 421.108,286.48 L 420.9705,286.5375 L 421.033,286.60375 L 421.108,286.48"
         id="path2518"
         style="fill:#7b7979;fill-opacity:1;fill-rule:nonzero;stroke:none" />
      <path
         d="M 429.2705,283.7975 L 429.208,283.82 L 429.2705,283.7975"
         id="path2520"
         style="fill:#7b7979;fill-opacity:1;fill-rule:nonzero;stroke:none" />
      <path
         d="M 421.4955,286.39125 L 421.5705,286.21125 C 422.358,286.21125 423.1705,285.89125 423.9205,285.4625 C 424.133,285.57 424.358,285.4625 424.5705,285.355 L 424.133,285.355 C 423.6455,285.355 423.533,285.78375 423.1705,285.78375 C 422.8955,285.57 422.6705,286.17625 422.458,285.89125 C 422.033,286.32125 421.4205,286.0175 421.108,286.48 C 421.2205,286.4275 421.3205,286.37375 421.383,286.32 L 421.4955,286.39125"
         id="path2522"
         style="fill:#7b7979;fill-opacity:1;fill-rule:nonzero;stroke:none" />
      <path
         d="M 478.233,302.67375 L 478.133,302.495 L 477.9955,302.63125 L 478.233,302.67375"
         id="path2524"
         style="fill:#7b7979;fill-opacity:1;fill-rule:nonzero;stroke:none" />
      <path
         d="M 477.958,302.67375 L 477.9955,302.63125 L 477.858,302.66375 L 477.958,302.67375"
         id="path2526"
         style="fill:#7b7979;fill-opacity:1;fill-rule:nonzero;stroke:none" />
      <path
         d="M 477.833,303.005 L 477.9205,303.03125 L 477.833,303.005"
         id="path2528"
         style="fill:#7b7979;fill-opacity:1;fill-rule:nonzero;stroke:none" />
      <path
         d="M 473.483,305.12875 L 473.483,305.12875"
         id="path2530"
         style="fill:#7b7979;fill-opacity:1;fill-rule:nonzero;stroke:none" />
      <path
         d="M 474.4205,305.03 L 474.5955,304.8525 L 474.383,304.96 L 474.4205,305.03"
         id="path2532"
         style="fill:#7b7979;fill-opacity:1;fill-rule:nonzero;stroke:none" />
      <path
         d="M 473.3455,306.31625 L 473.458,306.35125 L 473.4205,306.4225 L 473.6705,306.21 L 473.3455,306.31625"
         id="path2534"
         style="fill:#7b7979;fill-opacity:1;fill-rule:nonzero;stroke:none" />
      <path
         d="M 453.3705,276.46375 C 453.0455,276.42875 452.7205,276.49875 452.5455,276.57125 C 452.7205,276.6425 453.008,276.46375 453.3705,276.46375"
         id="path2536"
         style="fill:#7b7979;fill-opacity:1;fill-rule:nonzero;stroke:none" />
      <path
         d="M 452.208,277.10625 L 451.9205,277 L 451.9955,277.07 L 451.808,277.1775 C 451.958,277.25 452.0955,277.1425 452.208,277.10625"
         id="path2538"
         style="fill:#7b7979;fill-opacity:1;fill-rule:nonzero;stroke:none" />
      <path
         d="M 450.1705,276.96375 L 450.208,277.07 L 450.708,276.96375 C 450.883,276.42875 451.4955,277.07 451.708,276.6425 L 451.4955,276.785 C 450.9955,276.6075 450.3455,276.8575 449.883,277 L 449.958,277.10625 L 450.1705,276.96375"
         id="path2540"
         style="fill:#7b7979;fill-opacity:1;fill-rule:nonzero;stroke:none" />
      <path
         d="M 449.883,277 C 449.2455,277 448.5955,277.42875 447.958,277.42875 C 448.558,277.535 449.383,277.285 449.883,277"
         id="path2542"
         style="fill:#7b7979;fill-opacity:1;fill-rule:nonzero;stroke:none" />
      <path
         d="M 445.458,279.1425 L 445.558,279.1425 L 445.5955,279.03375 L 445.458,279.1425"
         id="path2544"
         style="fill:#7b7979;fill-opacity:1;fill-rule:nonzero;stroke:none" />
      <path
         d="M 442.458,286.28375 L 442.2455,286.21125 L 442.2455,286.32 L 442.458,286.28375"
         id="path2546"
         style="fill:#7b7979;fill-opacity:1;fill-rule:nonzero;stroke:none" />
      <path
         d="M 432.9205,283.105 L 433.13288,283.105 L 433.13288,283.06952 L 432.9205,283.06952 L 432.9205,283.105 z"
         id="path2548"
         style="fill:#7b7979;fill-opacity:1;fill-rule:nonzero;stroke:none" />
      <path
         d="M 427.033,284.28375 L 426.5705,284.62625 C 426.6455,284.60875 426.7455,284.62375 426.7455,284.49875 C 426.9955,284.53375 427.3205,284.4625 427.5705,284.35625 L 427.0705,284.4625 L 427.033,284.28375"
         id="path2550"
         style="fill:#7b7979;fill-opacity:1;fill-rule:nonzero;stroke:none" />
      <path
         d="M 426.4955,284.6775 L 426.5705,284.62625 L 426.4955,284.6775"
         id="path2552"
         style="fill:#7b7979;fill-opacity:1;fill-rule:nonzero;stroke:none" />
      <path
         d="M 426.0705,284.89125 L 426.283,284.78375 L 425.958,284.89125 L 426.0705,284.89125"
         id="path2554"
         style="fill:#7b7979;fill-opacity:1;fill-rule:nonzero;stroke:none" />
      <path
         d="M 424.783,285.2475 L 424.8955,285.2475 L 425.2455,285.105 L 424.783,285.2475"
         id="path2556"
         style="fill:#7b7979;fill-opacity:1;fill-rule:nonzero;stroke:none" />
      <path
         d="M 424.9955,285.64125 C 424.708,285.67625 424.4955,285.81875 424.2455,285.855 C 424.5705,285.92625 424.708,285.67625 424.9955,285.64125"
         id="path2558"
         style="fill:#7b7979;fill-opacity:1;fill-rule:nonzero;stroke:none" />
      <path
         d="M 422.133,286.64 L 422.208,286.60375 L 422.133,286.64"
         id="path2560"
         style="fill:#7b7979;fill-opacity:1;fill-rule:nonzero;stroke:none" />
      <path
         d="M 421.883,286.7475 L 422.133,286.64 C 422.0205,286.65375 421.883,286.5775 421.883,286.7475"
         id="path2562"
         style="fill:#7b7979;fill-opacity:1;fill-rule:nonzero;stroke:none" />
      <path
         d="M 419.033,287.7125 L 419.6705,287.4975 C 419.458,287.42625 419.208,287.64125 419.033,287.7125"
         id="path2564"
         style="fill:#7b7979;fill-opacity:1;fill-rule:nonzero;stroke:none" />
      <path
         d="M 418.4955,287.175 L 418.6705,287.14125 C 418.608,287.105 418.2455,287.2125 418.4955,287.175"
         id="path2566"
         style="fill:#7b7979;fill-opacity:1;fill-rule:nonzero;stroke:none" />
      <path
         d="M 417.858,288.105 L 418.133,288.03375 C 418.033,287.89125 417.8955,288.07 417.858,288.105"
         id="path2568"
         style="fill:#7b7979;fill-opacity:1;fill-rule:nonzero;stroke:none" />
      <path
         d="M 417.708,288.14 C 417.408,288.06 417.258,288.32625 417.083,288.41375 C 417.308,288.36375 417.483,288.19625 417.708,288.14"
         id="path2570"
         style="fill:#7b7979;fill-opacity:1;fill-rule:nonzero;stroke:none" />
      <path
         d="M 416.8955,288.42625 L 417.083,288.41375 L 416.8955,288.42625"
         id="path2572"
         style="fill:#7b7979;fill-opacity:1;fill-rule:nonzero;stroke:none" />
      <path
         d="M 416.6705,288.56875 L 416.458,288.64125 L 416.533,288.64125 L 416.6705,288.56875"
         id="path2574"
         style="fill:#7b7979;fill-opacity:1;fill-rule:nonzero;stroke:none" />
      <path
         d="M 416.358,288.64125 L 416.1455,288.67625 L 416.208,288.7475 L 416.358,288.64125"
         id="path2576"
         style="fill:#7b7979;fill-opacity:1;fill-rule:nonzero;stroke:none" />
      <path
         d="M 415.2455,289.105 L 415.3955,288.9625 L 415.033,289.105 L 415.2455,289.105"
         id="path2578"
         style="fill:#7b7979;fill-opacity:1;fill-rule:nonzero;stroke:none" />
      <path
         d="M 413.6455,289.64 L 413.783,289.49625 C 413.708,289.53375 413.5705,289.49625 413.6455,289.64"
         id="path2580"
         style="fill:#7b7979;fill-opacity:1;fill-rule:nonzero;stroke:none" />
      <path
         d="M 413.433,289.64 L 413.208,289.7125 L 413.2455,289.7475 L 413.433,289.64"
         id="path2582"
         style="fill:#7b7979;fill-opacity:1;fill-rule:nonzero;stroke:none" />
      <path
         d="M 440.5705,304.88625 L 440.4205,304.89875 L 440.458,304.95875 L 440.5705,304.88625"
         id="path2584"
         style="fill:#7b7979;fill-opacity:1;fill-rule:nonzero;stroke:none" />
      <path
         d="M 437.7455,306.6 L 437.583,306.70375 L 437.7455,306.6"
         id="path2586"
         style="fill:#7b7979;fill-opacity:1;fill-rule:nonzero;stroke:none" />
      <path
         d="M 417.3205,308.06125 L 417.3205,308.06625 L 417.3205,308.06125"
         id="path2588"
         style="fill:#7b7979;fill-opacity:1;fill-rule:nonzero;stroke:none" />
      <path
         d="M 417.183,307.85 L 417.3205,308.06125 L 417.2205,307.77875 L 417.183,307.85"
         id="path2590"
         style="fill:#7b7979;fill-opacity:1;fill-rule:nonzero;stroke:none" />
      <path
         d="M 416.783,306.7 L 416.783,306.70625 L 416.783,306.7"
         id="path2592"
         style="fill:#7b7979;fill-opacity:1;fill-rule:nonzero;stroke:none" />
      <path
         d="M 410.683,292.95625 L 410.683,292.96 L 410.683,292.95625"
         id="path2594"
         style="fill:#7b7979;fill-opacity:1;fill-rule:nonzero;stroke:none" />
      <path
         d="M 410.358,292.21 L 410.333,292.24125 L 410.358,292.21"
         id="path2596"
         style="fill:#7b7979;fill-opacity:1;fill-rule:nonzero;stroke:none" />
      <path
         d="M 410.783,292.96 L 410.783,292.88875 L 410.683,292.88875 L 410.683,292.95625 L 410.783,292.96"
         id="path2598"
         style="fill:#7b7979;fill-opacity:1;fill-rule:nonzero;stroke:none" />
      <path
         d="M 476.558,303.49375 C 476.7705,303.5225 476.9455,303.2675 477.083,303.25375 C 476.933,303.2075 476.7705,303.18625 476.7455,303.065 C 476.8455,303.01625 476.983,302.95375 477.1205,302.9125 L 476.9955,302.85125 L 477.058,302.815 C 476.4955,302.85125 475.6705,302.88625 475.033,303.03 L 474.9205,302.9225 C 471.383,303.31625 467.783,303.9925 464.2455,304.42125 C 463.458,304.77875 462.5955,304.52875 461.783,304.85125 C 461.3455,304.95875 460.8205,304.99375 460.4955,305.2075 L 460.383,305.1 C 459.5705,305.52875 458.8455,305.315 458.033,305.74375 C 455.6705,305.9925 453.383,306.85 450.9205,307.315 C 448.5705,307.85 445.9205,308.635 443.5705,309.17125 C 442.4955,309.6 441.108,309.7775 439.9955,310.135 C 438.108,310.77875 436.033,311.20625 434.108,311.85 C 433.958,312.13375 433.7455,311.92 433.4955,312.06375 C 429.3205,313.45625 425.4955,314.59875 421.358,316.24125 L 421.1455,315.88375 L 421.0705,316.0275 C 421.108,315.88375 420.7455,315.8125 421.033,315.70625 C 421.033,315.2775 420.533,315.38375 420.6455,314.95625 L 420.608,315.0275 L 420.4955,314.92125 L 420.533,314.8125 L 420.3955,314.8125 L 420.3205,314.63375 L 420.4955,314.59875 C 420.4955,314.24125 420.1455,314.49125 420.283,314.17125 L 420.3205,314.17125 L 420.0705,313.95625 L 420.183,313.885 L 420.0705,313.77875 C 420.0705,313.6 420.2455,313.635 420.3955,313.67 L 420.3955,313.5275 L 420.608,313.45625 L 420.7205,313.56375 L 420.933,313.34875 C 421.783,313.24125 422.433,312.67 423.283,312.67 C 424.033,312.3125 424.433,312.3125 425.1455,311.9575 C 425.683,311.885 425.958,311.42125 426.533,311.6 C 426.108,311.385 426.6455,311.135 426.608,310.885 C 426.608,311.06375 426.7455,311.06375 426.858,311.20625 L 426.7455,311.42125 L 426.933,311.31375 C 427.1455,311.385 427.608,311.27875 427.8955,311.17125 C 428.1455,311.06375 428.3955,310.92125 428.6455,310.7425 L 428.683,310.77875 L 428.683,310.67125 L 428.858,310.77875 C 429.183,310.7425 428.9955,310.45625 429.3205,310.56375 L 429.3205,310.635 C 430.0705,310.45625 430.708,310.06375 431.458,309.92125 C 431.708,309.7425 432.033,309.63625 432.208,309.385 C 432.3955,309.27875 432.683,308.92125 432.8205,309.27875 L 432.958,309.06375 L 433.0705,309.17125 L 433.1455,308.85 L 432.958,308.85 L 432.9205,308.70875 C 433.0705,308.67125 433.183,308.4925 433.358,308.635 L 433.3955,308.92125 C 434.1455,308.77875 434.8205,308.2075 435.3955,308.065 C 435.283,307.81375 435.183,308.1 435.0705,307.95875 C 435.4205,307.4575 436.208,307.63625 436.5705,307.1 L 436.6705,307.2075 L 436.8955,307.13625 C 437.1205,306.7875 437.358,306.815 437.583,306.70375 L 437.4205,306.70625 L 437.4205,306.49375 L 437.5705,306.49375 L 437.5705,306.3875 L 437.858,306.27875 L 437.783,306.4575 C 437.958,306.78 437.858,306.3875 438.108,306.4575 L 438.0705,306.3875 C 438.108,306.24375 438.3955,306.20875 438.433,306.24375 L 438.3205,306.13625 C 438.4955,305.9225 438.8205,305.9225 438.858,305.7075 L 438.958,305.815 C 439.1705,305.815 439.283,305.52875 439.3955,305.42125 C 438.9205,305.49375 438.5705,305.9225 438.108,305.85 C 438.883,305.5125 439.5955,304.96 440.4205,304.89875 C 440.358,304.83125 440.258,304.785 440.3205,304.6725 L 440.533,304.63625 L 440.033,304.35 C 439.9955,304.1725 440.0705,303.9925 440.208,303.8875 C 440.858,303.85 441.4955,303.28 442.0705,303.03 C 441.8955,302.9225 441.708,303.20875 441.608,302.9575 C 441.4205,302.9225 441.3205,302.99375 441.208,303.13625 C 440.7455,302.815 440.2455,303.49375 439.783,303.1725 C 437.9955,303.49375 435.7455,303.8875 433.933,304.42125 C 433.7455,304.42125 433.5705,304.565 433.458,304.565 C 428.283,306.35 422.8955,307.2425 417.7455,308.9575 C 418.033,308.85 417.783,308.70875 417.858,308.6 L 417.8205,308.635 L 417.7455,308.52875 L 417.7205,308.7425 L 417.608,308.635 L 417.6455,308.38625 C 417.3455,308.45375 417.3455,308.26125 417.3205,308.06625 C 417.183,308.205 417.033,307.9925 416.8955,307.9925 C 416.7455,307.85 417.183,307.565 417.183,307.315 L 417.0705,307.565 L 416.858,307.4575 L 416.9705,307.35125 L 416.783,307.315 L 416.858,307.2425 C 416.7455,307.1 416.8955,306.99375 416.7455,306.92125 L 416.783,306.885 L 416.683,306.885 C 416.4955,306.76125 416.7455,306.69125 416.783,306.7 L 416.683,306.49375 L 416.6455,306.67125 L 416.4705,306.27875 C 416.8955,306.02875 416.033,305.9575 416.533,305.63625 C 417.4955,305.38625 418.3205,304.85125 419.3205,304.6725 C 419.5705,304.13625 420.433,304.6 420.7205,304.10125 C 421.2455,304.06625 421.7455,303.70875 422.2455,303.6725 C 422.9955,303.565 423.3955,302.9575 424.183,302.9575 C 424.5705,302.85125 425.1455,302.70875 425.3205,302.49375 C 425.3955,302.38625 425.683,302.27875 425.7455,302.49375 L 425.7455,302.38625 C 426.3955,301.95875 427.1455,302.10125 427.8205,301.78 C 429.0705,301.28 430.4205,301.10125 431.6455,300.49375 C 433.208,300.1375 434.8955,299.53 436.458,299.06625 C 436.858,298.45875 437.858,298.74375 438.533,298.35125 C 439.2455,297.81625 440.208,297.78125 440.9955,297.35125 C 441.4205,297.245 441.6455,297.28125 441.9205,297.1375 C 442.108,297.03 442.458,296.95875 442.608,297.06625 C 443.208,296.81625 443.783,296.71 444.3955,296.495 L 444.7455,296.4225 C 445.283,295.8875 446.2455,296.17375 446.7455,295.6375 C 446.9205,295.81625 447.208,295.53125 447.3955,295.46 C 447.6455,295.78125 447.8205,295.31625 448.033,295.245 C 448.533,295.20875 448.9955,295.03125 449.458,294.8875 L 449.3205,294.81625 C 449.608,294.38875 450.283,294.21 450.7455,294.06625 L 450.633,294.06625 C 450.458,294.175 449.958,294.28 449.633,294.175 C 449.958,293.81625 450.633,294.03125 451.033,293.71 C 451.1455,293.7825 451.283,293.8525 451.3455,293.71 L 451.1705,293.71 C 451.1455,293.21 451.7455,293.3175 451.9205,292.995 L 451.708,292.88875 L 451.8205,292.78125 C 451.0705,293.13875 450.108,292.96 449.3205,292.995 C 448.9955,293.06625 448.5705,293.1025 448.458,292.96 C 447.208,293.3525 445.7455,293.38875 444.533,293.95875 C 442.033,294.245 439.458,295.03125 436.9955,295.745 C 436.458,295.8875 435.8955,295.995 435.3955,296.28 C 429.208,297.495 423.4955,299.28 417.608,301.13625 C 416.533,301.3875 415.433,301.95875 414.433,302.06625 L 414.433,301.78 L 414.608,301.95875 C 414.3955,301.13625 413.8955,300.27875 413.5705,299.6025 C 413.6455,299.85125 413.858,300.03 413.683,300.27875 L 413.3205,299.92375 L 413.433,299.85125 C 413.3205,299.745 413.3955,299.6025 413.2205,299.6025 C 413.108,299.49375 413.108,299.315 413.2455,299.28 L 413.008,299.28 L 413.108,298.995 C 412.7205,298.95875 413.0705,298.53 412.933,298.20875 L 412.8955,298.24625 L 412.8205,298.20875 L 412.8955,297.995 L 412.8205,298.03 L 412.7205,297.92375 C 412.783,297.745 412.608,297.565 412.608,297.28125 C 415.508,296.17375 418.4705,295.13875 421.3955,294.1375 C 422.433,293.7825 423.533,293.56625 424.4955,292.995 C 425.458,292.8525 426.3205,292.35375 427.283,292.21 C 428.108,291.88875 428.8955,291.49625 429.7455,291.2825 C 430.7455,290.8175 431.933,290.46 433.033,290.10375 C 433.3205,289.85375 433.8955,290.0675 434.033,289.63875 C 434.858,289.67375 435.533,289.1025 436.358,288.99625 C 437.0705,288.60375 438.108,288.42375 438.8205,288.0325 L 438.7455,287.96125 C 438.858,287.64 439.2455,287.96125 439.358,287.71125 L 439.2455,287.64 C 439.608,287.39 440.033,287.28125 440.458,287.1025 C 440.208,287.0675 439.958,287.425 439.783,287.21125 C 440.1705,286.74625 440.783,286.7825 441.3205,286.64 C 441.1705,286.49625 441.1705,286.3175 440.958,286.24625 L 441.283,286.21 C 441.458,286.0325 441.6455,285.89 441.958,286.0325 L 441.608,285.89 C 438.108,286.5675 434.8955,287.425 431.5705,288.46 C 430.933,288.46 430.283,288.8525 429.608,288.99625 C 428.9955,289.0675 428.433,289.42375 427.8955,289.5325 C 426.708,289.96 425.533,290.3175 424.3955,290.71125 C 420.358,292.28125 416.1455,293.495 412.183,295.245 C 412.0705,295.245 411.933,295.20875 411.858,295.3525 C 411.608,295.20875 411.933,294.96 411.608,294.8875 L 411.758,294.81625 L 411.3205,294.71 L 411.3955,294.6725 C 411.5705,294.6725 411.608,294.45875 411.533,294.3525 C 411.533,294.1025 411.3205,294.175 411.2205,294.1375 L 411.3955,294.03125 L 411.3955,293.71 C 411.283,293.7825 411.008,293.81625 411.108,293.95875 C 410.858,293.8525 411.008,293.6375 410.858,293.495 C 411.008,293.3175 411.3205,293.60375 411.283,293.53125 C 411.2205,293.3525 411.183,293.1025 411.008,292.995 C 410.8205,293.1025 411.108,293.21 410.9705,293.3175 C 410.6455,293.3525 410.683,293.06625 410.6455,292.995 L 410.683,292.95625 L 410.5705,292.78125 C 410.733,292.6825 410.2705,292.37375 410.333,292.24125 L 410.1455,292.1375 L 410.2205,291.99625 L 410.3205,292.0325 C 410.258,291.81625 410.258,291.5675 410.108,291.46125 L 410.033,291.49625 C 409.933,291.3525 409.8205,291.03125 409.933,290.96 L 409.5705,290.92375 C 409.533,290.78125 409.683,290.8525 409.7205,290.74625 L 409.683,290.71125 C 410.033,290.38875 410.533,290.3175 410.9705,290.0675 C 411.183,290.0675 411.433,290.0675 411.508,289.85375 L 412.8955,289.46125 C 413.358,289.2825 413.858,288.92375 414.3955,288.92375 C 415.3955,288.63875 416.3205,287.99625 417.283,287.8525 C 417.7205,287.5325 418.358,287.64 418.8205,287.31875 L 418.783,287.28125 C 419.108,287.35375 419.433,287.0325 419.783,286.9975 L 419.7455,286.96125 C 419.908,286.91 420.0705,286.85 420.233,286.785 C 420.058,286.63375 419.883,286.87875 419.7455,286.7825 C 419.783,286.53125 419.9955,286.71 419.9705,286.46125 C 420.2455,286.64 420.4705,286.3175 420.7455,286.35375 C 420.7205,286.24625 420.5705,286.175 420.7455,286.10375 C 420.933,286.06875 420.8205,286.24625 420.933,286.3175 L 421.358,286.10375 C 421.783,285.99625 422.0705,285.89 422.533,285.7825 L 422.533,285.675 C 422.608,285.4975 422.683,285.74625 422.783,285.675 C 423.283,285.56875 423.6455,285.17625 424.183,285.17625 L 424.283,285.2825 L 424.4955,285.14 L 424.4705,285.2475 L 424.683,285.28875 L 424.5705,285.14 L 424.8205,285.0325 C 425.0705,284.67625 425.433,284.9975 425.6455,284.74625 L 425.5705,284.71125 L 425.683,284.60375 L 425.7955,284.59875 C 425.933,284.465 426.0705,284.52875 426.183,284.31875 C 426.2455,284.38875 426.533,284.38875 426.433,284.5325 C 426.683,284.5325 426.8955,284.2825 427.1455,284.425 L 427.0705,284.38875 L 427.3955,284.21125 C 427.033,284.21125 426.608,284.60375 426.3955,284.31875 C 426.7455,284.21125 427.183,284.06875 427.4705,283.99625 L 427.608,283.7825 C 427.8955,284.10375 428.1455,283.64 428.433,283.7825 C 428.1455,283.96125 427.683,284.10375 427.608,284.175 L 427.783,284.2825 L 427.708,284.21125 C 427.933,283.99625 428.0705,284.14 428.358,284.10375 L 428.2205,284.06875 C 428.283,283.96125 428.358,283.85375 428.533,283.89125 L 428.5705,283.99625 L 428.533,284.04625 L 428.9955,283.89125 C 429.0705,283.42625 429.3955,283.92625 429.6455,283.7825 C 429.4955,283.81875 429.358,283.7475 429.3205,283.64 L 429.3955,283.56875 C 429.608,283.39 429.858,283.675 429.8205,283.7825 C 429.8955,283.60375 430.183,283.60375 430.0705,283.42625 L 430.283,283.5325 L 430.183,283.675 C 430.3205,283.675 430.3205,283.4975 430.3955,283.42625 L 430.458,283.5325 L 430.4955,283.31875 C 430.608,283.42625 430.783,283.5325 430.933,283.42625 L 430.933,283.31875 C 431.108,283.21125 431.3205,282.96125 431.433,283.2475 C 431.708,282.9975 432.108,282.81875 432.4955,282.9975 L 432.3955,282.81875 C 432.533,282.64 432.608,282.81875 432.8205,282.7825 L 432.8205,282.4975 L 433.033,282.67625 C 433.033,282.355 433.533,282.67625 433.683,282.355 C 433.9955,282.4975 434.1455,281.9625 434.533,282.06875 L 434.5705,282.2825 L 434.7455,281.92625 L 434.8955,282.06875 C 435.108,281.67625 435.608,282.105 435.7455,281.71125 C 436.108,281.89 436.208,281.31875 436.608,281.605 L 436.9205,281.5325 L 436.8205,281.42625 C 437.033,281.42625 437.458,281.1775 437.783,281.2825 C 437.958,281.06875 438.283,280.99875 438.4955,280.99875 L 438.533,280.855 C 438.7455,281.105 438.9955,280.7825 439.2455,280.7825 C 439.358,280.355 439.8955,280.7475 440.033,280.46125 C 440.7455,280.39 441.6705,280.2125 442.283,279.9975 L 442.3955,279.82 C 442.533,279.82 442.708,279.57 442.8205,279.8175 C 443.1955,279.68375 443.608,279.67625 444.0705,279.56875 L 443.858,279.56875 L 443.958,279.39 C 444.0705,279.28375 444.283,279.355 444.3955,279.4975 C 444.3955,279.07 444.858,279.28375 445.0705,279.07 C 445.3205,279.4625 445.7455,279.03375 446.108,279.03375 L 445.8955,278.96125 L 446.208,278.81875 C 446.4205,279.03375 446.783,278.81875 447.108,278.81875 L 447.208,278.7125 L 447.1705,278.64 C 447.358,278.605 447.533,278.355 447.6455,278.64 C 447.6955,278.5225 447.808,278.52625 447.908,278.53125 L 447.8205,278.49875 C 448.2955,278.30875 448.958,278.17625 449.3955,278.04875 C 449.2205,277.91625 449.3205,277.8125 449.358,277.6775 L 449.458,277.78375 C 449.7455,277.53375 450.1705,277.6775 450.533,277.4625 C 450.6705,277.64125 450.6705,277.32 450.8205,277.4275 L 450.7455,277.355 L 450.958,277.24875 C 450.783,277.24875 450.5705,277.21125 450.4955,277.4275 C 448.9205,277.49875 447.3205,278.03375 445.8205,278.31875 C 445.458,278.42625 445.033,278.53375 444.708,278.7125 C 444.208,278.49875 443.783,279.03375 443.3205,278.85625 C 443.6455,278.56875 444.208,278.7125 444.4955,278.39125 C 445.3955,278.355 446.3205,277.99875 447.208,277.855 C 446.883,277.60625 446.358,277.78375 445.9955,277.96125 C 444.9955,278.17625 443.783,278.355 442.708,278.7125 C 441.608,279.03375 440.2455,279.28375 439.1455,279.71125 C 438.358,279.71125 437.5705,280.10375 436.8955,280.31875 L 436.8205,280.355 C 435.1455,280.7475 433.2455,281.31875 431.458,281.92625 C 430.2455,282.06875 429.0705,282.56875 427.9955,282.9975 C 426.5705,283.31875 424.9955,283.7825 423.533,284.31875 C 422.858,284.4975 422.183,284.74625 421.608,284.96 C 421.0705,285.10375 420.3205,285.2825 419.858,285.56875 C 420.033,285.675 420.3955,285.4975 420.533,285.675 C 420.2455,285.8175 419.9705,285.925 419.6455,285.89 L 419.783,285.7825 L 419.7455,285.60375 C 419.1455,286.0325 418.4705,285.74625 417.9705,286.35375 L 417.858,286.24625 C 417.3205,286.49625 416.7205,286.6025 416.3205,286.9975 C 415.7205,286.9975 415.108,287.39 414.6455,287.71125 C 414.358,287.46 414.5705,287.925 414.283,287.71125 C 413.6455,288.0675 412.8955,288.21125 412.283,288.60375 L 412.258,288.56875 C 411.5705,288.96125 410.683,288.92375 410.108,289.42375 C 409.683,289.24625 409.183,289.96 409.033,289.42375 C 408.7205,289.5325 408.933,288.99625 408.858,288.88875 C 408.508,288.7825 408.7205,288.24625 408.433,288.2825 C 408.3955,288.3175 408.283,288.39 408.433,288.46 L 408.2205,288.60375 C 408.033,288.88875 408.183,289.0675 408.3205,289.24625 C 408.533,289.71125 408.033,290.10375 407.6455,290.21 C 407.783,290.3175 408.033,290.3525 408.108,290.10375 L 408.3205,290.28125 C 407.3205,290.63875 406.358,291.0675 405.3205,291.3525 L 405.2205,291.245 C 406.033,290.96 406.6455,290.71125 407.4705,290.49625 L 407.4705,290.28125 C 407.433,290.5325 407.258,290.3175 407.1455,290.38875 C 406.683,290.425 406.283,290.71125 406.0705,290.92375 C 405.8955,290.78125 405.683,290.88875 405.533,291.03125 C 405.183,290.99625 404.758,291.245 404.358,291.3525 C 404.108,290.99625 403.9705,290.6025 403.8955,290.21 C 403.3955,289.74625 403.3955,288.8525 402.6455,288.675 L 402.7205,288.60375 L 402.3955,288.49625 C 402.2205,288.39 402.2205,288.13875 402.183,288.0675 L 402.008,288.0675 C 401.7955,287.89 402.0705,287.71125 401.8955,287.49625 C 401.683,286.96125 400.933,286.9975 400.683,286.64 L 401.033,286.24625 C 400.858,286.2825 400.683,286.21 400.608,286.13875 L 400.633,286.1175 L 400.508,286.13875 L 400.683,286.3175 C 400.358,286.39 400.2955,286.64 399.9705,286.64 C 400.0705,286.9975 399.5455,286.74625 399.508,287.1025 L 399.5455,287.1025 C 399.608,288.39 399.7205,289.6025 400.358,290.74625 C 400.1455,290.92375 400.508,291.0675 400.3955,291.245 C 400.8205,291.5675 400.6455,292.24625 400.933,292.67375 C 400.5705,292.995 400.0705,292.96 399.7205,293.17375 C 398.4705,293.81625 397.258,294.175 396.008,294.78125 C 395.758,294.5675 395.683,295.1025 395.358,294.92375 C 394.433,295.42375 393.433,295.67375 392.4705,296.1025 C 391.2955,296.56625 390.008,296.8525 388.933,297.495 L 388.8955,297.46 C 386.758,298.28 384.5455,298.995 382.4705,299.95875 C 381.758,300.35125 380.8955,300.63625 380.4705,301.315 L 380.683,301.20875 C 380.858,301.28 381.1455,301.065 381.333,301.13625 C 381.008,301.315 381.008,301.7075 380.7955,301.88625 C 381.2955,301.45875 381.8955,301.28 382.4705,300.995 C 382.9705,300.49375 383.683,300.4575 384.2205,300.1375 L 384.2955,300.27875 C 384.583,299.95875 385.0455,300.065 385.358,299.745 C 385.583,299.81625 385.7205,299.81625 385.8955,299.53 L 386.0455,299.6025 C 386.258,299.28 386.683,299.315 386.9705,299.28 L 386.8955,299.20875 C 387.333,299.03125 387.758,298.70875 388.183,298.67375 C 388.433,298.70875 388.433,298.31625 388.683,298.53 C 388.758,298.3875 389.1455,298.56625 389.1455,298.24625 L 389.358,298.31125 C 389.783,298.1875 390.1955,298.08125 390.608,297.8875 L 390.333,297.8875 C 390.333,297.70875 390.508,297.81625 390.5455,297.70875 C 390.7205,298.03 391.258,297.6025 391.2955,297.81625 C 391.433,297.67375 391.8205,297.53 392.008,297.35125 C 392.258,297.495 392.7955,297.06625 392.858,297.06625 C 392.6455,297.06625 392.3955,297.245 392.258,297.28125 C 392.183,297.46 392.108,297.31625 392.008,297.28125 L 392.758,296.95875 L 392.683,296.92375 C 392.8955,296.45875 393.433,296.78 393.8205,296.53125 L 393.758,296.495 C 394.508,296.245 395.2955,295.8875 395.9705,295.56625 C 396.608,295.53125 397.3205,295.06625 397.933,294.8875 C 398.2205,294.6725 398.858,294.6725 398.8955,294.38875 C 399.2955,294.3525 399.758,294.1375 400.183,294.06625 C 400.2955,293.8875 400.5455,293.7825 400.7205,293.92375 L 400.7205,293.95875 L 401.108,293.53125 L 401.3205,293.8525 L 401.108,294.03125 C 401.033,294.06625 400.858,294.03125 400.933,294.175 C 401.1455,294.28 401.108,294.03125 401.258,294.03125 C 401.5455,294.175 401.358,294.495 401.6455,294.6725 C 401.6455,295.20875 402.0455,295.70875 402.108,296.28 L 402.3205,296.31625 L 402.2205,296.495 L 402.3955,296.60125 L 402.3205,296.745 C 402.3955,297.245 402.6455,297.53 402.858,297.92375 C 402.8205,298.13625 402.858,298.53 403.0705,298.67375 C 402.508,299.03125 401.8955,299.06625 401.433,299.49375 L 401.358,299.42375 C 401.2205,299.38625 401.0705,299.45875 401.008,299.6025 C 398.858,300.20875 396.8205,301.315 394.683,302.06625 C 391.8955,303.1725 389.1455,304.35 386.358,305.42125 C 384.508,306.35 382.758,306.815 380.9705,307.7425 C 378.183,308.67125 375.5455,309.88625 372.933,311.20625 C 372.2955,311.385 372.5455,312.13375 372.183,312.385 L 372.6455,312.35 C 373.1455,312.3125 373.683,311.92 374.1205,312.06375 C 374.6205,312.13375 374.9705,311.7425 375.508,311.81375 C 376.2955,311.56375 376.9705,311.1 377.7955,310.95625 C 378.508,310.52875 379.5455,310.31375 380.258,309.81375 C 380.508,309.8525 380.7205,309.7475 380.9455,309.63 L 380.758,309.56375 C 381.333,309.17125 382.008,309.06375 382.683,308.92125 L 382.508,309.0275 C 385.258,308.065 387.583,306.885 390.333,305.9575 C 393.108,304.85125 395.6455,303.6725 398.5455,302.6 C 398.7955,302.4225 399.0705,302.45875 399.2955,302.2075 C 400.683,301.85125 402.0705,301.24375 403.358,300.6725 C 403.7205,300.49375 403.5705,300.9225 403.8205,300.995 C 403.683,301.9225 404.433,302.74375 404.5705,303.70875 L 404.6455,303.6725 C 404.8955,303.9225 404.758,304.315 405.183,304.42125 C 405.033,304.7075 405.3205,304.85125 405.3205,305.1 C 402.758,306.20875 399.858,307.1 397.183,308.17125 C 395.5455,308.6 394.0455,309.63625 392.3205,309.7075 C 391.933,309.92125 391.508,310.17 391.083,310.31375 C 390.7205,310.52875 390.2955,310.85 389.9705,311.1 L 389.7955,311.06375 L 389.858,311.20625 L 389.333,311.7425 C 389.4705,311.9925 389.4705,312.09875 389.2205,312.2775 L 389.258,312.56375 L 389.433,312.35 L 389.4705,312.385 L 389.433,312.49125 C 389.833,312.2775 389.9705,312.885 390.333,312.7775 C 391.433,313.42125 392.3955,312.6 393.508,312.67 C 395.2205,312.02875 397.0455,311.9575 398.758,311.42125 C 398.9705,311.31375 399.3205,311.42125 399.433,311.17125 C 401.858,310.885 404.183,310.1 406.4705,309.35 C 406.8955,309.06375 406.8205,309.67125 406.933,309.88625 C 407.033,309.88625 407.183,309.85 407.258,309.9925 C 407.2205,310.135 407.0705,310.35 407.2205,310.52875 C 407.3205,310.67125 407.358,310.42125 407.4705,310.56375 C 407.3205,310.81375 407.433,311.06375 407.433,311.27875 L 407.6455,311.42125 L 407.4705,311.70625 L 407.6455,311.5275 C 407.683,311.7425 407.933,311.9575 407.858,312.17125 C 405.758,312.92125 403.7205,313.5275 401.5455,314.1 C 399.358,314.7775 397.2955,315.70625 395.1455,316.5275 C 394.3955,316.455 394.608,317.52625 393.8205,317.38375 L 393.8205,317.49125 C 393.5455,317.3125 393.358,317.7775 393.0705,317.705 L 393.0705,318.0625 C 392.9705,318.27625 392.7205,318.24125 392.5705,318.38375 L 392.6455,318.5625 L 392.5455,318.67 L 392.6455,318.705 L 392.3205,318.9925 L 392.4705,318.9925 L 392.5455,319.13375 C 392.683,319.24125 392.9705,319.13375 392.9705,319.42 C 393.433,319.34875 393.9705,320.0625 394.2955,319.42 C 395.0705,319.34875 396.008,319.52625 396.8205,319.205 C 397.8955,319.74125 399.0705,319.13375 400.1455,318.91875 C 402.3205,318.59875 404.6455,318.17 406.933,317.59875 C 407.2205,317.59875 407.3205,317.2775 407.5705,317.38375 C 408.008,317.2425 408.4705,317.205 408.858,316.99125 C 409.3205,316.70625 409.183,317.38375 409.4705,317.49125 C 409.258,317.67 409.533,317.63375 409.608,317.81375 C 409.683,317.92 409.608,318.3125 409.7205,318.5625 L 409.783,318.49125 C 409.8955,318.705 410.008,318.955 409.8955,319.205 C 410.108,319.34875 410.108,319.52625 410.108,319.67 C 410.008,320.09875 410.8205,320.02625 410.533,320.52625 C 408.9705,321.17 407.3955,321.77625 405.858,322.52625 C 405.6455,322.705 405.2205,322.5625 405.108,322.88375 C 403.433,323.41875 401.858,324.16875 400.2955,324.9175 C 399.2205,325.5975 397.8205,325.525 396.9705,326.5975 C 396.8955,326.9175 396.4705,326.5975 396.508,326.9175 C 396.258,326.84625 396.2205,327.27625 395.9705,327.13375 L 396.0705,327.3475 C 395.7955,327.455 395.508,327.66875 395.6455,327.98875 C 395.108,328.1325 395.6455,328.34625 395.5705,328.6325 C 396.0705,328.84625 396.5705,328.59625 396.9705,329.06 L 397.0455,328.73875 C 398.9705,328.6675 400.7205,327.84625 402.7205,327.56125 C 405.533,327.3475 408.0705,326.09625 410.758,325.41875 C 411.3955,325.41875 412.033,324.70375 412.683,325.205 L 412.5705,325.31125 C 412.7205,325.45375 412.608,325.8825 413.008,325.84625 L 412.8955,326.06125 L 413.033,326.205 L 413.008,326.27625 C 413.4705,326.81125 413.533,327.49 413.9705,328.1325 C 414.1455,328.025 414.2205,328.59625 414.4955,328.4175 C 414.3955,328.6675 414.5705,328.9175 414.858,328.98875 C 414.8955,329.49 415.433,329.06 415.3955,329.595 C 415.1455,329.9175 415.0705,329.4175 414.858,329.4175 C 414.9955,329.6325 415.258,329.9175 415.5705,329.73875 C 415.608,329.81125 415.8205,329.77625 415.783,329.95375 L 415.4705,330.025 C 415.6455,330.48875 416.2205,330.70375 416.533,331.09625 L 416.5705,331.025 C 416.858,331.4175 417.358,331.525 417.7455,331.84625 C 417.8205,331.84625 417.7205,331.7025 417.858,331.73875 L 417.7455,331.6325 L 417.8205,331.45375 L 417.283,331.23875 L 417.3205,331.13125 C 417.158,330.94375 417.0705,330.65875 416.783,330.59625 L 416.858,330.45375 C 417.1205,330.77625 417.5205,330.92 417.933,330.9975 L 417.858,330.9175 C 417.7205,330.70375 417.4955,330.34625 417.433,330.1675 L 417.4955,330.23875 C 417.7205,330.31 417.4705,330.09625 417.608,330.06125 C 417.8205,330.06125 417.9955,330.275 418.2455,330.275 L 418.1455,330.1675 C 417.783,330.09625 417.8205,329.6325 417.7455,329.4175 C 417.608,329.27625 417.4955,328.95375 417.608,328.84625 C 417.9705,328.56125 417.8955,329.0975 418.1455,329.1675 C 418.2455,329.70375 418.8205,329.81125 419.033,330.34625 L 418.9955,330.3825 L 419.108,330.3825 C 419.2205,330.1675 418.8205,330.23875 419.033,330.06125 C 419.183,329.99 419.183,330.1675 419.2455,330.23875 L 419.2455,329.84625 L 419.433,329.9175 C 419.358,329.73875 419.2455,329.8825 419.2205,329.81125 C 419.2205,329.4175 419.7455,329.6325 419.9705,329.595 L 419.858,329.0975 C 419.933,328.9175 420.108,329.06 420.108,328.84625 L 419.9705,328.775 L 420.108,328.6325 C 419.9955,328.45375 420.0705,328.1675 419.783,328.20375 C 420.1455,327.91875 419.533,327.49 419.8955,327.3475 C 419.7455,327.27625 419.4955,327.23875 419.533,327.025 C 419.8955,326.8825 419.4955,326.5975 419.533,326.38375 C 418.933,326.38375 419.1455,325.6675 418.933,325.41875 L 418.9955,325.3475 L 418.783,325.09625 L 418.8955,324.99 C 418.3955,324.34625 418.4955,323.63375 418.358,322.95375 C 419.108,322.52625 419.9955,322.49125 420.7455,322.09875 C 421.0705,321.66875 421.4955,322.025 421.8955,321.77625 C 422.2455,321.99 422.2455,322.52625 422.4705,322.8475 L 422.683,322.88375 L 422.6455,323.16875 C 423.033,323.16875 422.8205,323.705 423.108,323.74 L 423.0705,323.81125 L 423.3955,324.24125 C 423.7205,324.24125 423.3205,324.49 423.608,324.5625 C 423.7455,324.70375 423.8955,324.49 424.033,324.455 C 423.8955,324.24125 423.533,324.0975 423.7205,323.95375 C 423.4955,323.91875 423.4955,323.705 423.3955,323.5975 C 423.4955,323.52625 423.608,323.41875 423.7455,323.49125 C 423.8205,323.52625 423.958,323.52625 423.933,323.705 L 423.8205,323.74 L 423.7455,323.63375 L 423.7205,323.74 C 423.858,323.74 423.8205,323.95375 423.958,324.025 L 423.958,323.81125 L 424.033,323.81125 L 424.183,324.155 C 424.2455,324.1275 424.283,324.1 424.283,324.24125 L 424.4705,324.27625 L 424.5455,324.59625 C 424.7455,324.50875 424.9955,325.0475 425.2455,324.66875 L 425.208,324.5625 L 425.3205,324.38375 C 424.933,324.24125 424.708,323.77625 424.4705,323.52625 L 424.4955,323.41875 C 424.2455,323.38375 424.4705,323.0625 424.3955,323.0975 L 424.358,323.16875 L 424.283,323.0975 L 424.358,322.95375 C 424.208,322.8475 424.108,322.66875 424.2455,322.52625 L 424.283,322.52625 C 424.108,322.455 424.183,322.16875 424.1455,322.09875 C 424.033,322.0625 423.958,321.66875 423.7455,321.81125 C 423.6455,321.63375 423.4705,321.3475 423.7205,321.17 C 424.0705,320.99125 424.783,321.02625 424.8955,320.63375 C 425.358,320.74125 425.8205,320.49125 426.3205,320.49125 C 427.433,319.74125 428.8955,319.99125 430.0705,319.24125 C 430.3205,319.0275 430.8955,319.27625 430.933,318.81375 C 431.433,319.0275 431.608,318.49125 432.108,318.67 C 432.3955,318.49125 432.8955,318.5625 433.033,318.24125 C 433.4955,318.3125 433.608,317.74125 434.1455,317.955 C 434.8955,317.59875 435.4955,317.52625 436.283,317.2775 C 437.183,316.885 438.108,316.67125 438.9205,316.31375 C 439.1705,316.205 439.708,316.2775 439.783,316.0275 C 440.1705,316.13375 440.208,315.59875 440.6455,315.88375 C 440.858,315.7775 441.1455,315.7775 441.283,315.56375 C 441.9955,315.56375 442.7455,315.2425 443.358,314.95625 C 444.033,315.06375 444.4955,314.56375 445.1455,314.59875 L 445.1705,314.3125 L 445.358,314.49125 L 445.3955,314.3125 C 445.4955,314.385 445.5705,314.42 445.708,314.42 C 445.9955,314.385 446.108,314.24125 446.208,313.9925 L 446.358,314.17125 C 446.608,313.95625 446.9205,314.13375 447.283,313.9925 C 447.4955,313.67 447.8205,313.9925 448.0705,313.67 C 449.783,313.42125 451.458,312.92125 453.0705,312.49125 C 453.208,312.13375 453.533,312.52875 453.7455,312.17125 C 454.358,312.2075 454.9205,311.92 455.4205,311.81375 L 455.358,311.7425 C 455.4955,311.5275 455.708,311.77875 455.958,311.70625 L 455.883,311.63625 L 455.9955,311.5275 L 456.0705,311.6 C 456.283,311.67125 456.383,311.42125 456.4955,311.385 L 456.533,311.4925 L 456.8205,311.42125 L 456.708,311.42125 L 456.633,311.31375 C 456.8205,311.17125 456.958,311.35 457.133,311.385 C 458.033,311.06375 458.7455,310.885 459.633,310.67125 C 459.7455,310.385 460.208,310.81375 460.0705,310.42125 C 460.458,310.56375 460.8455,310.385 461.133,310.135 C 461.458,310.42125 461.958,309.81375 462.0705,309.81375 C 462.5705,310.27875 462.958,309.20625 463.3455,309.67125 C 463.8455,309.27875 464.783,309.42125 465.383,308.9575 C 465.958,308.9925 466.383,308.7425 466.883,308.52875 C 467.5705,308.52875 468.283,308.17125 468.958,307.9925 L 468.9205,307.95875 C 468.9205,307.81375 468.958,307.7075 469.0705,307.63625 C 469.3205,307.565 469.458,307.7425 469.6705,307.77875 L 469.4955,307.565 C 469.6705,307.52875 469.9955,307.52875 470.133,307.315 C 470.208,307.42125 470.4205,307.2425 470.4205,307.4575 C 470.6705,307.4925 470.8205,307.4925 471.058,307.42125 C 470.883,307.315 470.783,307.4575 470.6705,307.35125 C 470.883,306.9575 471.308,307.2425 471.5955,307.02875 L 471.533,306.99375 C 471.9205,307.06375 472.1705,306.7425 472.383,306.70625 L 472.283,306.6 C 471.9955,306.885 471.8455,306.27875 471.5955,306.49375 L 471.708,306.3875 L 471.633,306.35 C 472.058,306.065 472.383,305.9225 472.883,305.74375 C 472.1705,306.02875 471.633,306.02875 470.958,306.35 L 470.8455,306.065 C 471.1705,306.17125 471.458,305.9225 471.708,305.85 C 471.9205,305.815 472.2455,305.74375 472.383,305.60125 C 472.5955,305.7075 472.883,305.60125 472.9955,305.42125 L 472.883,305.315 L 472.7455,305.3775 L 472.808,305.38625 L 472.883,305.42125 L 472.458,305.49375 C 472.708,305.49375 472.4955,305.2075 472.708,305.1725 C 473.9955,304.77875 475.208,304.42125 476.558,304.02875 L 476.6705,303.815 C 476.883,303.8875 477.308,303.9575 477.5955,303.9225 C 477.383,303.49375 476.7455,303.9225 476.558,303.49375 z M 439.8955,304.52875 L 439.8955,304.565 L 439.708,304.565 L 439.8955,304.52875 z M 443.108,278.85625 L 443.208,278.92625 C 442.9955,278.9975 442.708,278.9975 442.4955,279.07 C 442.6455,278.85625 442.958,279.07 443.108,278.85625 z M 440.2455,279.605 C 440.8955,279.5325 441.3955,279.28375 442.0705,279.24875 C 440.608,279.67625 439.3955,279.855 437.958,280.31875 C 438.608,279.9975 439.4955,279.82 440.2455,279.605 z M 437.4205,280.355 L 437.858,280.31875 L 437.4205,280.46125 L 437.4205,280.355 z M 436.9205,280.56875 L 436.708,280.67625 L 436.9205,280.56875 z M 436.4955,280.67625 C 436.033,280.7475 435.5705,281.1775 434.9955,281.1775 C 435.4205,280.92625 436.033,280.7825 436.4955,280.67625 z M 434.533,281.2825 L 434.68288,281.2825 L 434.68288,281.31912 L 434.533,281.31912 L 434.533,281.2825 z M 434.208,281.42625 L 433.933,281.4975 L 434.208,281.42625 z M 433.783,281.5325 L 433.183,281.74875 C 433.3205,281.67625 433.4955,281.42625 433.783,281.5325 z M 431.958,282.06875 L 431.708,282.13375 L 431.683,282.14 L 431.5705,282.2475 L 431.533,282.17625 L 431.683,282.14 L 431.708,282.13375 L 431.958,282.06875 z M 429.7455,283.42625 L 429.608,283.42625 L 429.858,283.31875 L 429.7455,283.42625 z M 430.183,283.31875 L 430.033,283.31875 L 430.358,283.2475 L 430.183,283.31875 z M 430.708,282.355 C 430.4955,282.56875 429.933,282.56875 429.608,282.7825 L 429.533,282.71125 C 430.033,282.67625 430.208,282.355 430.708,282.355 z M 428.7455,283.89125 L 428.683,283.89125 L 428.8955,283.85375 L 428.7455,283.89125 z M 429.283,282.7825 C 429.0705,282.87625 428.7705,282.97 428.483,283.0625 L 428.358,283.10375 L 428.483,283.0625 C 428.733,282.9625 429.108,282.7225 429.283,282.7825 z M 427.9955,283.21125 L 427.8205,283.31875 L 427.708,283.31875 L 427.9955,283.21125 z M 427.608,283.31875 L 426.858,283.64 C 427.033,283.42625 427.3205,283.31875 427.608,283.31875 z M 426.283,283.7475 L 424.608,284.2825 C 425.0705,283.99625 425.608,283.89125 426.283,283.7475 z M 423.8205,284.4975 L 423.4955,284.60375 L 423.3955,284.60375 L 423.8205,284.4975 z M 421.933,285.14 L 421.7205,285.2475 L 421.608,285.2475 L 421.933,285.14 z M 421.358,285.3525 L 420.7205,285.56875 L 421.358,285.3525 z M 390.7205,297.78125 L 390.7205,297.70875 L 390.933,297.70875 L 390.7205,297.78125 z M 399.608,293.60375 L 399.508,293.60375 L 399.8205,293.42375 L 399.608,293.60375 z M 400.358,293.28125 L 400.258,293.28125 L 400.508,293.17375 L 400.358,293.28125 z M 374.0455,311.9575 L 374.2205,311.92 L 374.0455,311.9575 z M 417.433,308.4925 C 417.433,308.67125 417.6455,308.77875 417.6455,308.9575 C 417.533,308.85 417.358,308.70875 417.433,308.4925 z M 414.3205,301.52875 L 414.3205,301.88625 L 414.108,301.88625 C 414.233,301.855 414.3205,301.71375 414.3205,301.58375 L 414.3205,301.52375 L 414.108,301.24375 L 414.183,301.20875 L 414.008,301.10125 L 414.108,301.02875 L 413.783,300.4575 C 413.9205,300.7075 414.233,301.1075 414.3205,301.52375 L 414.3205,301.52875 z M 419.683,286.7825 L 419.683,286.88875 C 419.2205,286.88875 418.7205,287.31875 418.2455,287.31875 C 418.683,287.28125 419.108,286.74625 419.683,286.7825 z M 419.5705,285.925 L 419.2455,286.24625 L 419.2455,286.13875 C 419.033,286.0325 418.858,286.3175 418.608,286.3175 C 418.933,286.175 419.3205,285.89 419.5705,285.925 z M 418.4705,286.35375 C 418.2205,286.425 417.783,286.71 417.7455,286.5675 C 418.0705,286.46125 418.0705,286.39 418.4705,286.35375 z M 418.0705,287.39 C 417.8205,287.46 417.5705,287.64 417.283,287.64 L 417.6455,287.49625 L 417.608,287.425 C 417.533,287.24625 417.933,287.31875 418.0705,287.39 z M 417.433,287.49625 L 417.0705,287.60375 L 417.433,287.49625 z M 416.358,287.175 C 416.0705,287.24625 415.9705,287.425 415.683,287.425 C 415.8955,287.31875 416.1455,287.175 416.358,287.175 z M 415.608,288.0325 L 415.5705,287.96125 L 415.683,287.8525 C 415.783,288.35375 416.033,287.60375 416.358,287.8525 L 416.8205,287.69 L 416.9705,287.64 L 416.8205,287.69 C 416.683,287.74 416.533,287.8 416.533,287.96125 C 415.9955,287.96125 415.4705,288.24625 414.9705,288.49625 L 415.033,288.56875 C 414.358,288.675 413.608,288.8525 412.8205,289.24625 C 412.783,289.49625 412.3955,289.31875 412.258,289.5325 L 411.7205,289.63875 L 412.358,289.31875 L 412.283,289.24625 C 412.933,289.24625 413.7455,288.8525 414.183,288.56875 C 414.6455,288.49625 415.2205,288.2825 415.608,288.0325 z M 414.3955,287.96125 L 413.8955,288.175 L 413.783,288.175 L 414.3955,287.96125 z M 412.608,288.60375 C 412.858,288.42375 413.008,288.49625 413.2455,288.39 C 412.683,288.74625 411.858,288.7825 411.508,289.21 L 411.3205,289.14 C 411.6455,288.88875 412.258,288.7825 412.608,288.60375 z M 411.608,289.67375 L 411.508,289.7825 L 411.3205,289.7825 L 411.608,289.67375 z M 411.008,289.88875 L 410.9205,289.9175 L 410.858,289.995 L 410.783,289.96 L 410.9205,289.9175 L 411.008,289.88875 z M 410.2205,290.21 L 410.1455,290.17375 L 410.4705,290.0675 L 410.2205,290.21 z M 409.683,289.63875 L 409.7205,289.74625 L 409.783,289.5675 C 410.008,289.74625 410.033,289.38875 410.258,289.5325 C 410.008,289.6025 409.7205,289.7825 409.3955,289.85375 C 409.433,289.63875 409.533,289.71125 409.683,289.63875 z M 406.2705,291.61375 C 406.5955,291.485 406.983,291.37625 407.3205,291.17375 L 407.6455,291.17375 L 407.4705,291.3525 L 407.533,291.245 L 407.358,291.17375 C 407.3205,291.3175 407.258,291.38875 407.108,291.46125 L 407.008,291.3525 C 406.933,291.53125 406.683,291.63875 406.4705,291.675 L 406.2705,291.61375 L 406.033,291.71 L 406.2705,291.61375 z M 405.108,291.3525 L 404.683,291.5675 L 405.108,291.3525 z M 405.608,294.71 L 405.558,294.67125 L 405.433,294.6025 L 405.6455,294.495 L 405.558,294.67125 L 405.608,294.71 z M 406.8205,297.245 L 406.7205,296.95875 L 406.683,297.245 C 406.4705,296.95875 406.858,296.495 406.358,296.3875 C 406.433,296.20875 406.508,295.96 406.3955,295.78125 L 406.258,295.6375 L 406.183,295.745 L 406.2205,295.78625 L 406.283,295.8525 L 406.2205,295.78625 L 406.183,295.78125 C 406.008,295.92375 406.358,295.96 406.258,296.17375 C 405.9705,295.96 406.108,295.6375 405.933,295.42375 C 406.008,295.31625 406.258,295.42375 406.183,295.20875 C 406.033,295.03125 405.9705,295.245 405.8205,295.13875 C 405.8205,294.8875 406.258,294.78125 405.858,294.5675 L 405.8205,294.6025 C 405.758,294.45875 405.6455,294.3525 405.7205,294.175 L 405.8205,294.1375 L 405.6455,293.8525 L 405.533,293.95875 C 405.3455,293.89375 405.408,293.45125 405.0955,293.505 L 405.008,293.53125 L 405.0955,293.505 C 405.283,293.4275 405.283,293.2125 405.2205,292.995 L 405.183,292.78125 L 405.8205,292.53125 C 405.533,292.53125 405.3205,292.46 405.0705,292.5675 L 404.8955,292.35375 C 405.933,291.96 407.183,291.63875 408.183,291.17375 L 408.1205,291.1275 L 408.0955,291.12125 L 407.8955,291.13875 L 407.958,291.0725 L 407.958,291.0675 L 407.683,291.0675 L 408.008,290.92375 L 407.8955,291.03125 L 407.958,291.0675 L 407.9705,291.0675 L 407.958,291.0725 L 408.0955,291.12125 L 408.1205,291.1275 L 408.3205,291.13875 L 408.508,291.17375 L 408.508,291.2825 L 408.3205,291.38875 L 408.508,291.46125 C 408.433,291.5675 408.108,291.38875 408.108,291.6025 C 408.7205,291.38875 408.508,292.1375 408.6455,292.35375 L 408.608,292.42375 C 408.6455,292.63875 408.7205,292.96 408.858,293.1025 L 408.958,293.205 L 408.9705,293.21 L 408.958,293.205 L 408.8205,293.28125 C 409.008,293.38875 409.0705,293.6375 409.1455,293.8525 L 409.033,293.81625 L 408.9705,293.95875 C 409.283,293.7825 409.183,294.45875 409.508,294.38875 L 409.3955,294.5675 C 409.533,295.06625 409.783,295.53125 410.008,295.995 C 408.933,296.4225 407.8955,296.8875 406.8205,297.245 z M 409.608,303.6725 C 409.3205,303.24375 409.183,302.9225 409.0705,302.4225 C 408.783,302.06625 408.8205,301.56625 408.7205,301.20875 C 408.533,301.24375 408.608,301.10125 408.533,301.02875 L 408.508,300.9225 L 408.3955,300.9225 L 408.433,300.78 C 408.3205,300.6725 408.433,300.245 408.183,300.245 L 408.2205,300.1375 C 408.183,299.81625 407.858,299.53 407.858,299.10125 C 407.9705,298.95875 408.3205,298.95875 408.533,298.8525 C 409.283,298.495 410.358,298.06625 410.9705,298.1025 C 411.033,298.45875 411.283,298.70875 411.283,299.06625 C 411.4705,299.245 411.358,299.53 411.533,299.745 L 411.608,299.6025 L 411.758,299.6025 C 411.858,299.92375 411.533,300.03 411.8205,300.3875 L 412.033,300.565 C 411.9955,300.63625 411.8205,300.70875 411.9705,300.81625 L 412.0705,300.81625 L 412.033,300.8875 C 412.358,300.995 411.9955,301.35125 412.358,301.45875 C 412.3955,301.76375 412.433,302.19 412.733,302.265 L 412.783,302.27875 L 412.733,302.265 L 412.683,302.315 C 412.683,302.4225 412.8205,302.49375 412.783,302.6375 C 411.758,303.03 410.6455,303.38625 409.608,303.6725 z M 412.783,310.45625 C 412.3955,309.49375 411.9705,308.4925 411.758,307.52875 C 412.7205,307.315 413.533,306.815 414.4955,306.565 C 414.683,306.99375 414.9705,307.2425 415.033,307.7425 L 414.858,307.77875 C 414.858,307.95875 415.0705,307.88625 415.183,307.95875 C 415.3955,308.4925 415.6455,308.9925 415.783,309.56375 C 414.858,309.92125 413.7455,310.06375 412.783,310.45625 z M 416.683,330.81 L 416.5705,330.775 L 416.5705,330.59625 C 416.683,330.6675 416.8205,330.6675 416.683,330.81 z M 416.4705,318.0625 C 416.3205,317.56375 415.8955,317.3475 415.8205,316.84875 C 415.4705,316.70625 415.7455,316.34875 415.4705,316.205 C 415.683,315.7775 414.9955,315.135 415.608,315.135 L 415.783,315.35 C 415.508,314.7425 416.283,315.06375 416.4705,314.7425 C 417.0705,314.88375 417.283,314.2775 417.8205,314.42 C 417.683,314.8125 418.1455,314.63375 418.0705,315.0275 L 418.033,314.95625 C 417.8205,315.31375 418.2205,314.99125 418.283,315.17 L 418.2455,315.2425 L 418.5705,315.56375 C 418.6455,315.70625 418.608,315.99125 418.7205,316.13375 C 418.7205,316.24125 418.7205,316.42 418.8955,316.5275 C 418.683,316.63375 419.033,316.74125 418.933,316.84875 C 419.108,316.70625 419.2205,316.885 419.358,316.955 C 418.4705,317.38375 417.3955,317.56375 416.4705,318.0625 z M 422.8955,322.205 L 422.9955,322.09875 L 423.0705,322.24125 L 422.8955,322.205 z M 424.4705,323.95375 L 424.358,324.0625 L 424.3955,324.1325 L 424.0705,323.81125 C 424.283,323.705 424.2455,324.1325 424.4705,323.95375 z M 423.183,322.5625 L 423.3955,322.775 L 423.3955,322.88375 L 423.183,322.5625 z M 423.7205,323.3125 C 423.6455,323.45375 423.4955,323.38375 423.3955,323.3125 C 423.4955,323.38375 423.6455,323.45375 423.7205,323.3125 z M 470.6705,306.02875 C 470.8455,305.9225 471.0955,305.74375 471.383,305.74375 C 471.283,306.02875 470.883,305.9225 470.6705,306.02875 z M 471.8205,305.7075 L 472.033,305.63625 L 471.8205,305.7075"
         id="path2600"
         style="fill:#7b7979;fill-opacity:1;fill-rule:nonzero;stroke:none" />
      <path
         d="M 388.7205,298.56625 L 388.683,298.53 C 388.433,298.70875 388.183,298.8525 387.933,298.95875 C 388.2205,298.8875 388.5455,298.6375 388.7205,298.56625"
         id="path2602"
         style="fill:#7b7979;fill-opacity:1;fill-rule:nonzero;stroke:none" />
      <path
         d="M 419.5455,331.025 L 419.408,330.9975 L 419.5455,331.025"
         id="path2604"
         style="fill:#7b7979;fill-opacity:1;fill-rule:nonzero;stroke:none" />
      <path
         d="M 424.0705,324.1325 L 424.1705,324.1625 L 424.0705,324.1325"
         id="path2606"
         style="fill:#7b7979;fill-opacity:1;fill-rule:nonzero;stroke:none" />
      <path
         d="M 389.358,298.31625 L 389.358,298.31125 L 389.2205,298.35125 L 389.358,298.31625"
         id="path2608"
         style="fill:#7b7979;fill-opacity:1;fill-rule:nonzero;stroke:none" />
      <path
         d="M 380.9455,309.63 C 381.133,309.6125 381.358,309.41125 381.5455,309.385 C 381.333,309.4175 381.133,309.52875 380.9455,309.63"
         id="path2610"
         style="fill:#7b7979;fill-opacity:1;fill-rule:nonzero;stroke:none" />
      <path
         d="M 424.183,324.16875 L 424.183,324.155 L 424.1705,324.1625 L 424.183,324.16875"
         id="path2612"
         style="fill:#7b7979;fill-opacity:1;fill-rule:nonzero;stroke:none" />
      <path
         d="M 424.4705,324.66875 L 424.5455,324.59625 L 424.4705,324.66875"
         id="path2614"
         style="fill:#7b7979;fill-opacity:1;fill-rule:nonzero;stroke:none" />
      <path
         d="M 423.958,321.66875 L 423.8205,321.5625 L 423.958,321.70375 L 423.958,321.66875"
         id="path2616"
         style="fill:#7b7979;fill-opacity:1;fill-rule:nonzero;stroke:none" />
      <path
         d="M 422.9955,324.34625 L 423.108,324.38375 L 422.858,324.16875 L 422.9955,324.34625"
         id="path2618"
         style="fill:#7b7979;fill-opacity:1;fill-rule:nonzero;stroke:none" />
      <path
         d="M 418.358,315.59875 L 418.4705,315.56375 L 418.283,315.59875 L 418.358,315.59875"
         id="path2620"
         style="fill:#7b7979;fill-opacity:1;fill-rule:nonzero;stroke:none" />
      <path
         d="M 418.033,308.31375 L 417.858,308.17125 L 417.8205,308.2075 L 418.033,308.31375"
         id="path2622"
         style="fill:#7b7979;fill-opacity:1;fill-rule:nonzero;stroke:none" />
      <path
         d="M 417.2205,306.92125 L 417.3205,307.02875 C 417.5705,307.0575 417.433,306.93125 417.3955,306.8075 L 417.3955,306.99375 L 417.3205,306.99375 L 417.283,306.885 L 417.2205,306.92125"
         id="path2624"
         style="fill:#7b7979;fill-opacity:1;fill-rule:nonzero;stroke:none" />
      <path
         d="M 417.3955,306.8075 L 417.3955,306.70625 L 417.3955,306.8075"
         id="path2626"
         style="fill:#7b7979;fill-opacity:1;fill-rule:nonzero;stroke:none" />
      <path
         d="M 417.7955,331.345 L 418.108,331.525 L 417.683,331.20375 L 417.7955,331.345"
         id="path2628"
         style="fill:#7b7979;fill-opacity:1;fill-rule:nonzero;stroke:none" />
      <path
         d="M 415.4705,309.27875 L 415.5705,309.49375 L 415.4705,309.27875"
         id="path2630"
         style="fill:#7b7979;fill-opacity:1;fill-rule:nonzero;stroke:none" />
      <path
         d="M 415.0705,308.17125 L 415.183,308.52875 L 415.258,308.4925 C 415.0705,308.38625 415.258,308.17125 415.0705,308.17125"
         id="path2632"
         style="fill:#7b7979;fill-opacity:1;fill-rule:nonzero;stroke:none" />
      <path
         d="M 414.608,300.995 L 414.533,300.995 L 414.608,301.13625 L 414.608,300.995"
         id="path2634"
         style="fill:#7b7979;fill-opacity:1;fill-rule:nonzero;stroke:none" />
      <path
         d="M 413.5705,299.49375 L 413.3205,298.95875 C 413.3205,299.10125 413.508,299.28 413.358,299.42375 L 413.5705,299.49375"
         id="path2636"
         style="fill:#7b7979;fill-opacity:1;fill-rule:nonzero;stroke:none" />
      <path
         d="M 411.608,300.4575 L 411.6455,300.35125 L 411.608,300.27875 L 411.608,300.4575"
         id="path2638"
         style="fill:#7b7979;fill-opacity:1;fill-rule:nonzero;stroke:none" />
      <path
         d="M 411.433,300.065 L 411.533,300.065 L 411.433,299.92375 L 411.433,300.065"
         id="path2640"
         style="fill:#7b7979;fill-opacity:1;fill-rule:nonzero;stroke:none" />
      <path
         d="M 411.108,292.78125 L 411.008,292.63875 L 411.008,292.78125 L 411.108,292.78125"
         id="path2642"
         style="fill:#7b7979;fill-opacity:1;fill-rule:nonzero;stroke:none" />
      <path
         d="M 410.758,290.63875 L 410.97038,290.63875 L 410.97038,290.60213 L 410.758,290.60213 L 410.758,290.63875 z"
         id="path2644"
         style="fill:#7b7979;fill-opacity:1;fill-rule:nonzero;stroke:none" />
      <path
         d="M 410.5705,291.675 L 410.5955,291.7775 L 410.5705,291.675"
         id="path2646"
         style="fill:#7b7979;fill-opacity:1;fill-rule:nonzero;stroke:none" />
      <path
         d="M 410.683,292.21 L 410.5955,291.7775 C 410.5955,291.94625 410.408,292.09125 410.683,292.21"
         id="path2648"
         style="fill:#7b7979;fill-opacity:1;fill-rule:nonzero;stroke:none" />
      <path
         d="M 410.358,290.74625 L 410.108,290.8525 L 410.2205,290.8525 L 410.358,290.74625"
         id="path2650"
         style="fill:#7b7979;fill-opacity:1;fill-rule:nonzero;stroke:none" />
      <path
         d="M 407.533,291.88875 C 407.2205,291.92375 407.033,291.92375 406.783,292.1025 C 407.033,292.0325 407.3205,292.0325 407.533,291.88875"
         id="path2652"
         style="fill:#7b7979;fill-opacity:1;fill-rule:nonzero;stroke:none" />
      <path
         d="M 406.5705,292.21 L 406.683,292.1375 L 406.3955,292.21 L 406.5705,292.21"
         id="path2654"
         style="fill:#7b7979;fill-opacity:1;fill-rule:nonzero;stroke:none" />
      <path
         d="M 406.033,292.35375 L 406.258,292.31625 C 406.183,292.1375 406.033,292.35375 406.033,292.35375"
         id="path2656"
         style="fill:#7b7979;fill-opacity:1;fill-rule:nonzero;stroke:none" />
      <path
         d="M 399.3955,294.78125 L 399.3455,294.77625 L 399.2205,294.92375 L 399.3955,294.78125"
         id="path2658"
         style="fill:#7b7979;fill-opacity:1;fill-rule:nonzero;stroke:none" />
      <path
         d="M 400.8205,294.1375 C 399.9705,294.3525 399.108,294.6725 398.358,295.1025 L 398.433,295.20875 C 398.608,295.00625 398.9955,294.74125 399.3455,294.77625 C 399.733,294.3875 400.408,294.49125 400.8205,294.1375"
         id="path2660"
         style="fill:#7b7979;fill-opacity:1;fill-rule:nonzero;stroke:none" />
      <path
         d="M 397.508,295.42375 L 397.608,295.42375 L 398.2205,295.13875 L 397.508,295.42375"
         id="path2662"
         style="fill:#7b7979;fill-opacity:1;fill-rule:nonzero;stroke:none" />
      <path
         d="M 394.7205,296.4225 L 394.7955,296.53125 L 395.008,296.31625 C 395.258,296.20875 395.5705,296.03 395.683,296.28 C 395.9705,296.06625 396.258,295.96 396.608,295.96 L 396.2955,295.96 C 396.5705,295.6375 396.9705,295.67375 397.358,295.53125 C 397.183,295.56625 396.7205,295.53125 396.5455,295.745 C 396.4705,295.8875 396.358,295.67375 396.3205,295.67375 L 396.2955,295.78125 L 396.3955,295.8525 C 396.2205,295.8875 396.008,295.995 395.858,295.96 L 395.8955,295.8525 L 396.108,295.78125 L 395.758,295.8875 L 395.758,296.1025 C 395.6455,295.96 395.3955,295.96 395.258,296.06625 L 395.4705,296.1025 C 395.1455,296.17375 394.8955,296.31625 394.608,296.4225 L 394.7205,296.4225"
         id="path2664"
         style="fill:#7b7979;fill-opacity:1;fill-rule:nonzero;stroke:none" />
      <path
         d="M 393.933,296.71 C 393.7955,296.81625 393.258,296.745 393.008,296.92375 C 393.4705,297.03 394.0455,296.745 394.4705,296.53125 C 394.2205,296.4225 393.9705,296.745 393.933,296.71"
         id="path2666"
         style="fill:#7b7979;fill-opacity:1;fill-rule:nonzero;stroke:none" />
      <path
         d="M 387.183,299.20875 L 387.2955,299.20875 L 387.3955,299.10125 L 387.183,299.20875"
         id="path2668"
         style="fill:#7b7979;fill-opacity:1;fill-rule:nonzero;stroke:none" />
      <path
         d="M 383.258,300.81625 L 383.333,300.81625 L 383.6455,300.60125 L 383.258,300.81625"
         id="path2670"
         style="fill:#7b7979;fill-opacity:1;fill-rule:nonzero;stroke:none" />
      <path
         d="M 382.583,301.13625 L 382.683,301.13625 L 382.833,301.02875 L 382.583,301.13625"
         id="path2672"
         style="fill:#7b7979;fill-opacity:1;fill-rule:nonzero;stroke:none" />
      <path
         d="M 359.5455,352.76625 L 362.083,349.42625 L 362.458,350.01625 C 363.308,351.3475 364.2705,351.94125 365.283,351.9575 C 365.533,351.9575 365.758,351.925 365.9955,351.86125 C 367.108,351.54 367.7705,350.6575 367.7705,349.75125 C 367.7705,348.82625 367.233,348.1675 365.633,347.47375 C 365.2205,347.29625 364.8205,347.10875 364.4205,346.91125 C 361.533,345.445 360.508,344.0375 360.458,341.82625 C 360.383,338.615 362.783,336.095 366.433,336.02 C 368.533,335.97625 370.3455,336.795 371.533,338.2025 L 371.7705,338.4925 L 369.258,341.36125 L 369.1955,341.47875 L 369.108,341.5375 L 368.708,340.9275 C 368.058,339.94125 367.408,339.54125 366.4955,339.49875 C 365.758,339.465 365.158,339.75 364.7955,340.25375 C 364.5705,340.56875 364.458,340.94875 364.4705,341.33375 C 364.508,342.14625 364.9955,342.7575 366.383,343.4375 L 368.2955,344.3475 C 368.5955,344.48125 368.883,344.6375 369.158,344.8075 C 370.883,345.905 371.7205,347.3925 371.7455,349.4325 C 371.7705,352.9275 369.3705,355.41 365.708,355.565 C 365.158,355.58625 364.608,355.54875 364.0705,355.44625 C 362.508,355.16375 361.1455,354.425 359.8705,353.1075 L 359.5455,352.76625"
         id="path2674"
         style="fill:#ed1c24;fill-opacity:1;fill-rule:nonzero;stroke:none" />
      <path
         d="M 386.7205,348.89125 L 386.7205,336.65125 L 390.833,336.65125 L 390.833,348.275 C 390.833,348.48875 390.8455,348.70875 390.858,348.92375 C 390.908,350.615 392.133,351.8025 393.9705,351.78125 C 395.383,351.77 396.408,351.02625 396.8455,349.69375 C 396.9205,349.49125 396.958,349.28125 396.983,349.0675 L 396.9955,348.27125 L 396.9955,336.65125 L 401.1705,336.65125 L 401.1455,347.895 C 401.133,348.64375 401.0455,349.45875 400.833,350.34125 C 400.0955,353.4875 397.5455,355.51125 393.633,355.45625 C 389.308,355.39875 386.7205,352.7975 386.7205,348.89125"
         id="path2676"
         style="fill:#ed1c24;fill-opacity:1;fill-rule:nonzero;stroke:none" />
      <path
         d="M 416.583,355.14125 L 420.783,355.14125 L 420.783,336.5925 L 416.583,336.5925 L 416.583,355.14125 z"
         id="path2678"
         style="fill:#ed1c24;fill-opacity:1;fill-rule:nonzero;stroke:none" />
      <path
         d="M 434.7455,352.76625 L 437.283,349.42625 L 437.658,350.01625 C 438.508,351.3475 439.4705,351.94125 440.4955,351.9575 C 440.733,351.9575 440.9705,351.925 441.1955,351.86125 C 442.308,351.54 442.9705,350.6575 442.9705,349.75125 C 442.9705,348.82625 442.4455,348.1675 440.833,347.47375 C 440.433,347.29625 440.0205,347.10875 439.6205,346.91125 C 436.7455,345.445 435.7205,344.0375 435.6705,341.82625 C 435.583,338.615 437.983,336.095 441.633,336.02 C 443.7455,335.97625 445.5455,336.795 446.733,338.2025 L 446.983,338.4925 L 444.4705,341.36125 L 444.408,341.47875 L 444.308,341.5375 L 443.908,340.9275 C 443.258,339.94125 442.608,339.54125 441.708,339.49875 C 440.958,339.465 440.358,339.75 440.008,340.25375 C 439.783,340.56875 439.658,340.94875 439.683,341.33375 C 439.708,342.14625 440.1955,342.7575 441.583,343.4375 L 443.4955,344.3475 C 443.7955,344.48125 444.083,344.6375 444.358,344.8075 C 446.0955,345.905 446.933,347.3925 446.9455,349.4325 C 446.983,352.9275 444.5705,355.41 440.908,355.565 C 440.358,355.58625 439.808,355.54875 439.2705,355.44625 C 437.708,355.16375 436.358,354.425 435.083,353.1075 L 434.7455,352.76625"
         id="path2680"
         style="fill:#ed1c24;fill-opacity:1;fill-rule:nonzero;stroke:none" />
      <path
         d="M 468.483,344.535 C 468.833,343.34625 469.108,342.15875 469.3455,340.94875 C 469.758,342.74625 470.258,344.5175 470.858,346.24625 C 471.058,346.835 471.258,347.41875 471.483,347.9975 L 467.2955,347.9975 C 467.758,346.8525 468.1455,345.7125 468.483,344.535 z M 464.8455,355.18 L 466.183,351.1925 L 472.558,351.1925 L 473.758,355.2175 L 477.8955,355.2175 L 471.558,336.60875 L 467.2455,336.60875 L 460.708,355.18 L 464.8455,355.18"
         id="path2682"
         style="fill:#ed1c24;fill-opacity:1;fill-rule:nonzero;stroke:none" />
      <path
         d="M 419.333,310.0375 C 420.608,310.0375 421.6455,309.005 421.6455,307.7325 C 421.6455,306.46 420.608,305.4275 419.333,305.4275 C 418.0705,305.4275 417.033,306.46 417.033,307.7325 C 417.033,309.005 418.0705,310.0375 419.333,310.0375"
         id="path2684"
         style="fill:#ed1c24;fill-opacity:1;fill-rule:nonzero;stroke:none" />
      <path
         d="M 416.2705,301.08125 C 417.5455,301.08125 418.583,300.04875 418.583,298.77625 C 418.583,297.50375 417.5455,296.47125 416.2705,296.47125 C 414.9955,296.47125 413.9705,297.50375 413.9705,298.77625 C 413.9705,300.04875 414.9955,301.08125 416.2705,301.08125"
         id="path2686"
         style="fill:#ed1c24;fill-opacity:1;fill-rule:nonzero;stroke:none" />
    </g>
    <g
       transform="matrix(1.25,0,0,-1.25,-1319.992,1275.6675)"
       id="g2722">
      <g
         clip-path="url(#clipPath2726)"
         id="g2724">
        <g
           clip-path="url(#clipPath2732)"
           id="g2730">
          <g
             transform="matrix(285.4892,0,0,844.0921,-1.055969,-1.026062)"
             id="g2736" />
        </g>
      </g>
    </g>
  </g>
</svg>
